<svg width="600" height="300" xmlns="http://www.w3.org/2000/svg"><path style="fill:#002131;stroke-width:0" d="M75.493 178.181 12 113.835l64.176-63.323 14.931 15.116-8.49 8.319-6.441-6.627-47.368 46.685 46.685 47.368 6.115-5.944 8.319 8.49z"/><path style="fill:#ff9500;stroke-width:0" d="m122.178 138.791-8.319-8.49 15.785-15.613-16.296-16.638 8.318-8.319 24.786 25.127z"/><path d="m74.64 113.493 46.685 47.368 47.197-46.685-46.685-47.368Zm46.514 64.006-63.322-64.176 48.206-47.539L121.993 50l63.323 64.347-64.176 63.152zm165.552-18.544c-1.664 0-2.417-.924-2.758-1.692l-8.348-20.221h-43.67l-7.95 20.193c-.355.81-1.108 1.72-2.772 1.72h-9.485a.839.839 0 0 1-.683-.37.78.78 0 0 1-.07-.767l36.218-88.62a.82.82 0 0 1 .768-.513h9.23c1.307 0 2.289.655 2.772 1.849l37.157 87.27a.811.811 0 0 1-.07.782.839.839 0 0 1-.683.37h-9.627zm-15.272-31.995-5.546-13.296c-6.584-15.841-10.808-26.208-12.628-30.9l-17.348 44.182h35.508z" style="fill:#002131;stroke-width:0"/><path d="M257.17 69.496c.982 0 1.65.44 2.006 1.337l37.157 87.283h-9.627c-.98 0-1.65-.398-2.005-1.208l-8.56-20.72h-44.78l-8.148 20.72c-.356.796-1.024 1.208-2.005 1.208h-9.485l36.219-88.62h9.229m-22.454 58.289h37.968l-6.015-14.434c-7.85-18.884-12.3-29.848-13.367-32.877l-12.969 33.02-5.617 14.305m22.454-59.953h-9.23c-.667 0-1.279.413-1.52 1.024l-36.22 88.62a1.667 1.667 0 0 0 .157 1.55 1.66 1.66 0 0 0 1.365.726h9.485c1.635 0 2.887-.782 3.512-2.19 0-.028.015-.043.029-.071l7.736-19.667h42.546l8.134 19.695c.64 1.45 1.892 2.219 3.527 2.219h9.627c.555 0 1.067-.285 1.38-.74a1.656 1.656 0 0 0 .142-1.564l-37.158-87.284c-.597-1.479-1.877-2.346-3.526-2.346zm-20.036 58.29 4.735-12.045 11.405-29.052c2.118 5.346 6.086 15.03 11.86 28.952l5.062 12.158h-33.062zm118.554 32.82c-1.323 0-2.375-.456-3.157-1.352l-20.733-25.923-19.14 25.995c-.74.867-1.75 1.265-3.072 1.265h-8.96a.83.83 0 0 1-.667-1.322l25.283-33.844L300.784 93.4a.803.803 0 0 1-.1-.867.833.833 0 0 1 .74-.47h9.897c1.223 0 2.247.455 3.03 1.351l18.201 23.236 17.008-23.179c.696-.938 1.734-1.408 3.071-1.408h8.689a.83.83 0 0 1 .668 1.323l-23.008 30.758 27.26 33.446a.825.825 0 0 1 .1.882.808.808 0 0 1-.74.47h-9.897z" style="fill:#002131;stroke-width:0"/><path d="m361.306 92.888-23.393 31.285 27.673 33.958h-9.897c-1.067 0-1.92-.356-2.546-1.067l-21.387-26.734-19.78 26.862c-.54.626-1.337.939-2.404.939h-8.958l25.667-34.356-24.857-30.873h9.897c.982 0 1.778.356 2.404 1.067l18.841 24.06 17.648-24.06c.54-.711 1.336-1.067 2.403-1.067h8.689m0-1.663h-8.689c-2.005 0-3.128.938-3.726 1.735l-16.367 22.325-17.505-22.34s-.043-.042-.057-.07a4.732 4.732 0 0 0-3.64-1.636h-9.898c-.64 0-1.209.37-1.493.938-.27.57-.199 1.252.2 1.75l24.06 29.876-24.9 33.332a1.692 1.692 0 0 0-.156 1.735c.284.555.853.91 1.479.91h8.958c1.949 0 3.072-.824 3.655-1.507a.256.256 0 0 0 .071-.1l18.515-25.141 20.05 25.056c.981 1.123 2.29 1.692 3.826 1.692h9.897c.64 0 1.223-.37 1.493-.938a1.666 1.666 0 0 0-.213-1.75l-26.862-32.948 22.624-30.246a1.66 1.66 0 0 0 .156-1.735 1.666 1.666 0 0 0-1.478-.91zm0 3.313zm39.56 65.47c-9.186 0-16.965-3.257-23.122-9.684-6.143-6.413-9.257-14.76-9.257-24.829 0-10.068 3.114-18.415 9.257-24.828 6.143-6.428 13.922-9.684 23.122-9.684h.398c9.187 0 16.965 3.256 23.122 9.684 6.144 6.413 9.258 14.76 9.258 24.828s-3.114 18.416-9.258 24.829c-6.143 6.427-13.921 9.684-23.122 9.684zm0-58.019c-6.498 0-11.547 1.991-15.016 5.93-3.499 3.968-5.276 9.883-5.276 17.562 0 7.68 1.777 13.595 5.276 17.562 3.47 3.94 8.532 5.944 15.016 5.944h.398c6.485 0 11.547-2.005 15.017-5.93 3.498-3.967 5.276-9.883 5.276-17.562 0-7.679-1.778-13.594-5.276-17.562-3.47-3.939-8.532-5.93-15.017-5.93h-.398z" style="fill:#002131;stroke-width:0"/><path d="M401.264 91.822c9.002 0 16.51 3.142 22.525 9.428 6.015 6.285 9.016 14.362 9.016 24.26 0 9.897-3.015 17.974-9.016 24.26-6.015 6.284-13.523 9.427-22.525 9.427h-.398c-9.001 0-16.51-3.143-22.525-9.428-6.015-6.285-9.03-14.362-9.03-24.26 0-9.897 3.001-17.974 9.03-24.26 6.016-6.285 13.524-9.427 22.525-9.427h.398m-.398 58.018h.398c6.77 0 11.988-2.076 15.643-6.214 3.654-4.138 5.474-10.182 5.474-18.117 0-7.934-1.834-13.964-5.474-18.116-3.655-4.138-8.874-6.214-15.643-6.214h-.398c-6.769 0-11.987 2.076-15.642 6.214-3.655 4.138-5.475 10.182-5.475 18.116 0 7.935 1.82 13.965 5.475 18.117 3.655 4.138 8.86 6.214 15.642 6.214m.398-59.668h-.398c-9.428 0-17.405 3.342-23.72 9.94-6.284 6.57-9.484 15.116-9.484 25.397 0 10.282 3.185 18.828 9.485 25.398 6.314 6.584 14.291 9.94 23.72 9.94h.397c9.428 0 17.406-3.342 23.72-9.94 6.285-6.57 9.485-15.116 9.485-25.398 0-10.28-3.186-18.827-9.485-25.397-6.314-6.598-14.292-9.94-23.72-9.94zm-.398 58.019c-6.328 0-11.049-1.849-14.405-5.66s-5.062-9.542-5.062-17.022c0-7.48 1.706-13.21 5.062-17.021 3.356-3.811 8.063-5.66 14.405-5.66h.398c6.328 0 11.05 1.849 14.405 5.66 3.356 3.81 5.063 9.542 5.063 17.021 0 7.48-1.707 13.211-5.063 17.022-3.356 3.811-8.062 5.66-14.405 5.66zm92.773 10.764a.825.825 0 0 1-.825-.824v-40.898c0-5.446-1.137-9.342-3.37-11.575-2.318-2.318-6.541-3.498-12.514-3.498-5.133 0-10.708 1.109-16.552 3.285l-1.067.398c-.654.242-.938.654-.938 1.365v50.923c0 .455-.37.824-.825.824h-10.025a.825.825 0 0 1-.825-.824V92.902c0-.455.37-.824.825-.824h7.224c.355 0 .668.227.782.568l1.578 4.722 3.3-1.593c6.583-3.157 12.74-4.764 18.272-4.764 8.39 0 14.988 2.474 19.582 7.338 4.138 4.422 6.242 10.594 6.242 18.344v41.438c0 .455-.37.824-.825.824h-10.025z" style="fill:#002131;stroke-width:0"/><path d="M478.665 91.822c8.19 0 14.519 2.36 18.984 7.081 4.01 4.28 6.015 10.21 6.015 17.776v41.437H493.64V117.22c0-5.702-1.209-9.755-3.612-12.158-2.489-2.489-6.868-3.74-13.097-3.74-5.261 0-10.878 1.109-16.837 3.342l-1.066.398c-.981.355-1.465 1.066-1.465 2.133v50.922h-10.025V92.888h7.224l1.877 5.617 4.138-2.005c6.499-3.114 12.471-4.678 17.917-4.678m-.028-1.65c-5.66 0-11.93 1.635-18.628 4.835l-2.46 1.195-1.28-3.826a1.653 1.653 0 0 0-1.565-1.123h-7.224c-.91 0-1.65.74-1.65 1.65v65.228c0 .91.74 1.65 1.65 1.65h10.026c.91 0 1.65-.74 1.65-1.65v-50.923c0-.412.099-.484.383-.583l1.081-.412c5.76-2.148 11.234-3.243 16.268-3.243 5.76 0 9.77 1.095 11.93 3.257 2.077 2.076 3.13 5.773 3.13 10.992v40.897c0 .91.739 1.65 1.649 1.65h10.025c.91 0 1.65-.74 1.65-1.65V116.68c0-7.978-2.176-14.334-6.457-18.913-4.763-5.048-11.56-7.608-20.178-7.608zm70.305 69.85c-9.642 0-17.562-3.328-23.535-9.897-5.958-6.542-8.973-14.818-8.973-24.616 0-9.797 3.043-18.415 9.044-24.828 6.016-6.428 13.638-9.684 22.653-9.684 9.016 0 16.396 3.071 22.184 9.144 5.787 6.057 8.717 13.608 8.717 22.425 0 4.095-1.138 6.171-3.37 6.171h-47.112c.47 6.144 2.46 11.135 5.944 14.846 3.612 3.868 8.774 5.816 15.372 5.816 4.863 0 10.41-1.322 16.524-3.939l6.811-2.943a.845.845 0 0 1 .328-.071c.256 0 .511.128.668.341l3.612 5.077a.833.833 0 0 1-.142 1.109c-3.982 3.342-8.575 6.043-13.666 8.02-5.12 1.99-10.182 3-15.073 3zm18.472-40.684c-.555-5.247-2.418-9.514-5.56-12.699-3.3-3.342-7.864-5.034-13.58-5.034-5.376 0-9.884 1.636-13.41 4.864-3.342 3.057-5.404 7.394-6.115 12.869h38.68z" style="fill:#002131;stroke-width:0"/><path d="M548.173 91.822c8.732 0 15.927 2.957 21.587 8.887 5.66 5.93 8.49 13.21 8.49 21.857 0 3.57-.854 5.347-2.546 5.347H527.71c.355 6.768 2.431 12.186 6.214 16.24 3.782 4.052 9.115 6.085 15.97 6.085 4.99 0 10.607-1.336 16.836-4.01l6.811-2.943 3.612 5.076c-3.924 3.3-8.404 5.93-13.438 7.893-5.034 1.962-9.954 2.943-14.775 2.943-9.442 0-17.092-3.214-22.923-9.627-5.844-6.413-8.76-14.434-8.76-24.06 0-9.628 2.944-17.975 8.817-24.26 5.873-6.286 13.24-9.428 22.056-9.428m-20.278 28.34h40.499c-.44-5.887-2.403-10.58-5.887-14.106-3.47-3.527-8.205-5.276-14.164-5.276-5.617 0-10.267 1.693-13.964 5.077-3.697 3.384-5.859 8.148-6.484 14.306m20.32-29.99c-9.257 0-17.078 3.34-23.264 9.94-6.143 6.569-9.271 15.115-9.271 25.382 0 10.267 3.085 18.472 9.186 25.17 6.129 6.74 14.263 10.167 24.146 10.167 4.991 0 10.167-1.023 15.372-3.057 5.176-2.02 9.855-4.764 13.893-8.162a1.654 1.654 0 0 0 .284-2.219l-3.611-5.076a1.664 1.664 0 0 0-1.351-.697c-.214 0-.441.043-.655.142l-6.811 2.944c-6.001 2.574-11.447 3.882-16.183 3.882-6.441 0-11.276-1.82-14.76-5.56-3.171-3.399-5.063-7.921-5.646-13.467h46.202c1.905 0 4.195-1.209 4.195-6.996 0-9.044-3.015-16.78-8.945-22.994-5.958-6.243-13.623-9.4-22.78-9.4Zm-18.443 28.34c.796-4.835 2.716-8.674 5.716-11.433 3.413-3.128 7.622-4.65 12.855-4.65 5.56 0 9.812 1.564 12.998 4.792 2.815 2.858 4.579 6.655 5.219 11.291zm-286.381 63.863c2.844 2.873 4.266 6.655 4.266 11.334 0 4.678-1.45 8.361-4.352 11.177-2.9 2.815-6.711 4.237-11.461 4.237H216.23c-.213 0-.313.114-.313.313v23.79c0 .527-.27.797-.796.797h-4.067c-.526 0-.797-.27-.797-.796v-54.364c0-.526.27-.797.797-.797h21.003c4.678 0 8.447 1.437 11.29 4.31zm-4.266 19.112c1.962-1.948 2.958-4.508 2.958-7.707 0-3.2-.982-5.86-2.958-7.821-1.977-1.963-4.522-2.958-7.665-2.958h-15.173c-.213 0-.313.113-.313.313v20.761c0 .213.1.313.313.313h15.173c3.143 0 5.688-.967 7.665-2.915zm50.61 31.981-11.732-24.743c-.057-.156-.157-.242-.313-.242h-13.566c-.213 0-.313.114-.313.313v24.43c0 .527-.27.797-.796.797h-4.067c-.526 0-.797-.27-.797-.796v-54.293c0-.526.27-.797.797-.797h20.676c4.579 0 8.276 1.422 11.092 4.267 2.815 2.844 4.237 6.555 4.237 11.134 0 3.726-1.01 6.897-3.029 9.5-2.019 2.601-4.763 4.28-8.219 5.033-.213.114-.27.242-.156.398l11.973 24.587a.867.867 0 0 1 .085.398c0 .37-.213.555-.64.555h-4.237c-.484 0-.796-.185-.953-.555zm-25.938-50.055v20.193c0 .213.1.313.313.313h14.846c3.085 0 5.588-.953 7.508-2.873 1.92-1.92 2.872-4.422 2.872-7.508 0-3.086-.952-5.603-2.872-7.537-1.92-1.934-4.423-2.915-7.508-2.915h-14.846c-.214 0-.313.114-.313.313zm50.453 48.932c-2.872-1.55-5.09-3.712-6.67-6.513-1.563-2.787-2.36-6.03-2.36-9.698v-20.122c0-3.669.782-6.91 2.36-9.698 1.565-2.801 3.798-4.963 6.67-6.513 2.873-1.536 6.2-2.318 9.983-2.318 3.782 0 7.124.768 10.025 2.318 2.9 1.55 5.134 3.712 6.712 6.513 1.564 2.787 2.36 6.03 2.36 9.698v20.122c0 3.669-.782 6.91-2.36 9.698-1.564 2.801-3.811 4.963-6.712 6.513-2.9 1.55-6.243 2.318-10.025 2.318-3.783 0-7.11-.768-9.983-2.318zm19.724-6.229c2.445-2.445 3.668-5.688 3.668-9.74v-20.435c0-4.038-1.223-7.309-3.668-9.783-2.446-2.475-5.703-3.712-9.741-3.712-4.039 0-7.21 1.237-9.656 3.712-2.446 2.474-3.669 5.73-3.669 9.783v20.435c0 4.038 1.223 7.295 3.67 9.74 2.445 2.446 5.673 3.67 9.655 3.67 3.981 0 7.295-1.224 9.74-3.67zm56.44-47.182v3.427c0 .526-.27.796-.797.796h-15.642c-.213 0-.313.114-.313.313v49.742c0 .527-.27.797-.796.797h-4.067c-.526 0-.796-.27-.796-.797v-49.742c0-.213-.114-.313-.313-.313h-15.003c-.526 0-.796-.27-.796-.796v-3.427c0-.526.27-.797.796-.797h36.959c.526 0 .796.27.796.797zm14.362 53.41c-2.872-1.55-5.09-3.71-6.67-6.512-1.563-2.787-2.36-6.03-2.36-9.698v-20.122c0-3.669.782-6.91 2.36-9.698 1.565-2.801 3.798-4.963 6.67-6.513 2.873-1.536 6.2-2.318 9.983-2.318 3.782 0 7.124.768 10.025 2.318 2.9 1.55 5.133 3.712 6.712 6.513 1.564 2.787 2.36 6.03 2.36 9.698v20.122c0 3.669-.782 6.91-2.36 9.698-1.564 2.801-3.811 4.963-6.712 6.513-2.901 1.55-6.243 2.318-10.025 2.318-3.783 0-7.11-.768-9.983-2.318zm19.724-6.228c2.445-2.445 3.668-5.688 3.668-9.74v-20.435c0-4.038-1.223-7.309-3.668-9.783-2.446-2.475-5.703-3.712-9.741-3.712-4.039 0-7.21 1.237-9.656 3.712-2.446 2.474-3.669 5.73-3.669 9.783v20.435c0 4.038 1.223 7.295 3.67 9.74 2.445 2.446 5.673 3.67 9.655 3.67 3.981 0 7.295-1.224 9.74-3.67zm29.862 6.428c-2.816-1.465-5.02-3.54-6.584-6.228-1.564-2.688-2.36-5.788-2.36-9.3V195.06c0-3.455.782-6.512 2.36-9.186 1.564-2.659 3.768-4.72 6.584-6.186 2.816-1.464 6.086-2.19 9.826-2.19s6.997.712 9.826 2.162c2.816 1.436 5.02 3.456 6.584 6.072 1.565 2.617 2.36 5.617 2.36 9.016 0 .27-.084.483-.24.64a.765.765 0 0 1-.555.241l-4.067.242c-.527 0-.797-.242-.797-.725v-.242c0-3.783-1.194-6.797-3.597-9.058-2.39-2.261-5.56-3.399-9.5-3.399-3.939 0-7.11 1.138-9.499 3.427-2.389 2.29-3.597 5.29-3.597 9.016v22.354c0 3.726 1.194 6.726 3.597 9.016 2.404 2.29 5.56 3.427 9.5 3.427 3.938 0 7.11-1.124 9.499-3.399 2.389-2.26 3.597-5.276 3.597-9.058v-.157c0-.483.27-.71.797-.71l4.067.241c.526 0 .796.242.796.725 0 3.456-.782 6.513-2.36 9.144-1.565 2.63-3.769 4.664-6.585 6.1-2.815 1.437-6.1 2.162-9.826 2.162-3.726 0-6.996-.725-9.826-2.19zm48.534-.2c-2.873-1.55-5.091-3.71-6.67-6.512-1.564-2.787-2.36-6.03-2.36-9.698v-20.122c0-3.669.782-6.91 2.36-9.698 1.565-2.801 3.797-4.963 6.67-6.513 2.872-1.536 6.2-2.318 9.982-2.318 3.783 0 7.125.768 10.026 2.318 2.9 1.55 5.133 3.712 6.711 6.513 1.565 2.787 2.361 6.03 2.361 9.698v20.122c0 3.669-.782 6.91-2.36 9.698-1.565 2.801-3.812 4.963-6.712 6.513-2.901 1.55-6.243 2.318-10.026 2.318-3.782 0-7.11-.768-9.982-2.318zm19.723-6.228c2.446-2.445 3.669-5.688 3.669-9.74v-20.435c0-4.038-1.223-7.309-3.669-9.783-2.446-2.475-5.702-3.712-9.74-3.712-4.04 0-7.21 1.237-9.656 3.712-2.446 2.474-3.67 5.73-3.67 9.783v20.435c0 4.038 1.224 7.295 3.67 9.74 2.446 2.446 5.674 3.67 9.655 3.67 3.982 0 7.295-1.224 9.741-3.67zm22.667 7.11v-54.292c0-.526.27-.797.796-.797h4.067c.527 0 .797.27.797.797v49.813c0 .214.1.313.313.313H579.4c.526 0 .796.27.796.796v3.356c0 .527-.27.797-.796.797h-33.375c-.526 0-.796-.27-.796-.797z" style="fill:#002131;stroke-width:0"/></svg>