<svg xmlns="http://www.w3.org/2000/svg" viewBox="0 0 800 600"><path style="fill:#fff;stroke-width:0" d="m245.55 345.07-44.65-45.25 45.13-44.53 10.5 10.63-5.97 5.85-4.53-4.66-33.31 32.83 32.83 33.31 4.3-4.18 5.85 5.97-10.15 10.03z"/><path style="fill:#ff9500;stroke-width:0" d="m278.38 317.37-5.85-5.97 11.1-10.98-11.46-11.7 5.85-5.85 17.43 17.67-17.07 16.83z"/><path d="m244.95 299.58 32.83 33.31 33.19-32.83-32.83-33.31-33.19 32.83Zm32.71 45.01-44.53-45.13 33.9-33.43 11.22-11.1 44.53 45.25-45.13 44.41Zm116.43-13.05c-1.17 0-1.7-.65-1.94-1.19l-5.87-14.22h-30.71l-5.59 14.2c-.25.57-.78 1.21-1.95 1.21h-6.67a.59.59 0 0 1-.54-.8l25.47-62.32c.09-.22.3-.36.54-.36h6.49c.92 0 1.61.46 1.95 1.3l26.13 61.37c.08.18.06.38-.05.55a.59.59 0 0 1-.48.26h-6.77Zm-10.74-22.49-3.9-9.35c-4.63-11.15-7.6-18.43-8.88-21.73l-12.2 31.08h24.97Z" style="fill:#fff;stroke-width:0"/><path d="M373.31 268.64c.69 0 1.16.31 1.41.94l26.13 61.38h-6.77c-.69 0-1.16-.28-1.41-.85l-6.02-14.57h-31.49l-5.73 14.57c-.25.56-.72.85-1.41.85h-6.67l25.47-62.32h6.49m-15.79 40.99h26.7l-4.23-10.15c-5.52-13.28-8.65-20.99-9.4-23.12l-9.12 23.22-3.95 10.06m15.79-42.16h-6.49c-.47 0-.9.29-1.07.72l-25.47 62.32a1.155 1.155 0 0 0 1.07 1.6h6.67c1.15 0 2.03-.55 2.47-1.54 0-.02.01-.03.02-.05l5.44-13.83h29.92l5.72 13.85c.45 1.02 1.33 1.56 2.48 1.56h6.77c.39 0 .75-.2.97-.52.21-.33.25-.74.1-1.1l-26.13-61.38c-.42-1.04-1.32-1.65-2.48-1.65Zm-14.09 40.98 3.33-8.47 8.02-20.43c1.49 3.76 4.28 10.57 8.34 20.36l3.56 8.55h-23.25Zm83.37 23.08c-.93 0-1.67-.32-2.22-.95l-14.58-18.23-13.46 18.28c-.52.61-1.23.89-2.16.89h-6.3a.584.584 0 0 1-.47-.93l17.78-23.8-17.2-21.36a.586.586 0 0 1 .45-.95h6.96c.86 0 1.58.32 2.13.95l12.8 16.34 11.96-16.3c.49-.66 1.22-.99 2.16-.99h6.11a.584.584 0 0 1 .47.93l-16.18 21.63 19.17 23.52c.14.17.17.41.07.62s-.3.33-.52.33h-6.96Z" style="fill:#fff;stroke-width:0"/><path d="m446.54 285.09-16.45 22 19.46 23.88h-6.96c-.75 0-1.35-.25-1.79-.75l-15.04-18.8-13.91 18.89c-.38.44-.94.66-1.69.66h-6.3l18.05-24.16-17.48-21.71h6.96c.69 0 1.25.25 1.69.75l13.25 16.92 12.41-16.92c.38-.5.94-.75 1.69-.75h6.11m0-1.17h-6.11c-1.41 0-2.2.66-2.62 1.22l-11.51 15.7-12.31-15.71s-.03-.03-.04-.05a3.328 3.328 0 0 0-2.56-1.15h-6.96c-.45 0-.85.26-1.05.66s-.14.88.14 1.23l16.92 21.01-17.51 23.44c-.26.35-.3.82-.11 1.22s.6.64 1.04.64h6.3c1.37 0 2.16-.58 2.57-1.06a.18.18 0 0 0 .05-.07l13.02-17.68 14.1 17.62c.69.79 1.61 1.19 2.69 1.19h6.96c.45 0 .86-.26 1.05-.66.19-.4.13-.88-.15-1.23l-18.89-23.17 15.91-21.27c.26-.35.31-.82.11-1.22-.2-.39-.6-.64-1.04-.64Zm0 2.32Zm27.82 46.05c-6.46 0-11.93-2.29-16.26-6.81-4.32-4.51-6.51-10.38-6.51-17.46s2.19-12.95 6.51-17.46c4.32-4.52 9.79-6.81 16.26-6.81h.28c6.46 0 11.93 2.29 16.26 6.81 4.32 4.51 6.51 10.38 6.51 17.46s-2.19 12.95-6.51 17.46c-4.32 4.52-9.79 6.81-16.26 6.81h-.28Zm0-40.8c-4.57 0-8.12 1.41-10.56 4.17-2.46 2.79-3.71 6.95-3.71 12.35s1.25 9.56 3.71 12.35c2.44 2.77 6 4.17 10.56 4.17h.28c4.56 0 8.12-1.41 10.56-4.17 2.46-2.79 3.71-6.95 3.71-12.35s-1.25-9.56-3.71-12.35c-2.44-2.77-6-4.17-10.56-4.17h-.28Z" style="fill:#fff;stroke-width:0"/><path d="M474.64 284.34c6.33 0 11.61 2.21 15.84 6.63s6.34 10.1 6.34 17.06-2.12 12.64-6.34 17.06c-4.23 4.42-9.51 6.63-15.84 6.63h-.28c-6.33 0-11.61-2.21-15.84-6.63s-6.35-10.1-6.35-17.06 2.11-12.64 6.35-17.06c4.23-4.42 9.51-6.63 15.84-6.63h.28m-.28 40.8h.28c4.76 0 8.43-1.46 11-4.37 2.57-2.91 3.85-7.16 3.85-12.74s-1.29-9.82-3.85-12.74c-2.57-2.91-6.24-4.37-11-4.37h-.28c-4.76 0-8.43 1.46-11 4.37-2.57 2.91-3.85 7.16-3.85 12.74s1.28 9.82 3.85 12.74c2.57 2.91 6.23 4.37 11 4.37m.28-41.96h-.28c-6.63 0-12.24 2.35-16.68 6.99-4.42 4.62-6.67 10.63-6.67 17.86s2.24 13.24 6.67 17.86c4.44 4.63 10.05 6.98 16.68 6.98h.28c6.63 0 12.24-2.35 16.68-6.98 4.42-4.62 6.67-10.63 6.67-17.86s-2.24-13.24-6.67-17.86c-4.44-4.64-10.05-6.99-16.68-6.99Zm-.28 40.79c-4.45 0-7.77-1.3-10.13-3.98-2.36-2.68-3.56-6.71-3.56-11.97s1.2-9.29 3.56-11.97c2.36-2.68 5.67-3.98 10.13-3.98h.28c4.45 0 7.77 1.3 10.13 3.98 2.36 2.68 3.56 6.71 3.56 11.97s-1.2 9.29-3.56 11.97c-2.36 2.68-5.67 3.98-10.13 3.98h-.28Zm65.24 7.57a.58.58 0 0 1-.58-.58V302.2c0-3.83-.8-6.57-2.37-8.14-1.63-1.63-4.6-2.46-8.8-2.46-3.61 0-7.53.78-11.64 2.31l-.75.28c-.46.17-.66.45-.66.96v35.81c0 .32-.26.58-.58.58h-7.05a.58.58 0 0 1-.58-.58v-45.87c0-.32.26-.58.58-.58h5.08c.25 0 .47.16.55.4l1.11 3.32 2.32-1.12c4.63-2.22 8.96-3.35 12.85-3.35 5.9 0 10.54 1.74 13.77 5.16 2.91 3.11 4.39 7.45 4.39 12.9v29.14c0 .32-.26.58-.58.58h-7.05Z" style="fill:#fff;stroke-width:0"/><path d="M529.07 284.34c5.76 0 10.21 1.66 13.35 4.98 2.82 3.01 4.23 7.18 4.23 12.5v29.14h-7.05V302.2c0-4.01-.85-6.86-2.54-8.55-1.75-1.75-4.83-2.63-9.21-2.63-3.7 0-7.65.78-11.84 2.35l-.75.28c-.69.25-1.03.75-1.03 1.5v35.81h-7.05v-45.87h5.08l1.32 3.95 2.91-1.41c4.57-2.19 8.77-3.29 12.6-3.29m-.02-1.16c-3.98 0-8.39 1.15-13.1 3.4l-1.73.84-.9-2.69c-.16-.47-.6-.79-1.1-.79h-5.08c-.64 0-1.16.52-1.16 1.16v45.87c0 .64.52 1.16 1.16 1.16h7.05c.64 0 1.16-.52 1.16-1.16v-35.81c0-.29.07-.34.27-.41l.76-.29c4.05-1.51 7.9-2.28 11.44-2.28 4.05 0 6.87.77 8.39 2.29 1.46 1.46 2.2 4.06 2.2 7.73v28.76c0 .64.52 1.16 1.16 1.16h7.05c.64 0 1.16-.52 1.16-1.16v-29.14c0-5.61-1.53-10.08-4.54-13.3-3.35-3.55-8.13-5.35-14.19-5.35Zm49.44 49.12c-6.78 0-12.35-2.34-16.55-6.96-4.19-4.6-6.31-10.42-6.31-17.31s2.14-12.95 6.36-17.46c4.23-4.52 9.59-6.81 15.93-6.81s11.53 2.16 15.6 6.43c4.07 4.26 6.13 9.57 6.13 15.77 0 2.88-.8 4.34-2.37 4.34h-33.13c.33 4.32 1.73 7.83 4.18 10.44 2.54 2.72 6.17 4.09 10.81 4.09 3.41 0 7.32-.93 11.62-2.77l4.79-2.07c.08-.03.15-.05.23-.05.18 0 .36.09.47.25l2.54 3.57c.17.25.13.59-.1.78-2.8 2.35-6.03 4.25-9.61 5.64-3.59 1.4-7.16 2.11-10.6 2.11Zm13-28.61c-.39-3.69-1.7-6.69-3.91-8.93-2.32-2.35-5.53-3.54-9.55-3.54-3.78 0-6.95 1.15-9.43 3.42-2.35 2.16-3.8 5.2-4.3 9.05h27.2Z" style="fill:#fff;stroke-width:0"/><path d="M577.95 284.34c6.14 0 11.2 2.08 15.18 6.25 3.98 4.17 5.97 9.29 5.97 15.37 0 2.51-.6 3.76-1.79 3.76h-33.75c.25 4.76 1.71 8.57 4.37 11.42 2.66 2.85 6.41 4.28 11.23 4.28 3.51 0 7.46-.94 11.84-2.82l4.79-2.07 2.54 3.57c-2.76 2.32-5.91 4.17-9.45 5.55-3.54 1.38-7 2.07-10.39 2.07-6.64 0-12.02-2.26-16.12-6.77-4.11-4.51-6.16-10.15-6.16-16.92s2.07-12.64 6.2-17.06 9.31-6.63 15.51-6.63m-14.26 19.93h28.48c-.31-4.14-1.69-7.44-4.14-9.92-2.44-2.48-5.77-3.71-9.96-3.71-3.95 0-7.22 1.19-9.82 3.57-2.6 2.38-4.12 5.73-4.56 10.06m14.29-21.09c-6.51 0-12.01 2.35-16.36 6.99-4.32 4.62-6.52 10.63-6.52 17.85s2.17 12.99 6.46 17.7c4.31 4.74 10.03 7.15 16.98 7.15 3.51 0 7.15-.72 10.81-2.15 3.64-1.42 6.93-3.35 9.77-5.74.46-.39.55-1.07.2-1.56l-2.54-3.57a1.17 1.17 0 0 0-.95-.49c-.15 0-.31.03-.46.1l-4.79 2.07c-4.22 1.81-8.05 2.73-11.38 2.73-4.53 0-7.93-1.28-10.38-3.91-2.23-2.39-3.56-5.57-3.97-9.47h32.49c1.34 0 2.95-.85 2.95-4.92 0-6.36-2.12-11.8-6.29-16.17-4.19-4.39-9.58-6.61-16.02-6.61Zm-12.97 19.93c.56-3.4 1.91-6.1 4.02-8.04 2.4-2.2 5.36-3.27 9.04-3.27 3.91 0 6.9 1.1 9.14 3.37 1.98 2.01 3.22 4.68 3.67 7.94h-25.87Z" style="fill:#fff;stroke-width:0"/></svg>