<svg width="600" height="300" xmlns="http://www.w3.org/2000/svg"><path style="fill:#fff;stroke-width:0" d="M75.493 178.181 12 113.835l64.176-63.323 14.931 15.116-8.49 8.319-6.441-6.627-47.368 46.685 46.685 47.368 6.115-5.944 8.319 8.49z"/><path style="fill:#ff9500;stroke-width:0" d="m122.178 138.791-8.319-8.49 15.785-15.613-16.297-16.638 8.32-8.319 24.785 25.127z"/><path d="m74.64 113.493 46.685 47.368 47.197-46.685-46.685-47.368zm46.514 64.005-63.322-64.175 48.206-47.539L121.993 50l63.323 64.346-64.176 63.152zm165.552-18.543c-1.664 0-2.417-.924-2.759-1.692l-8.347-20.221h-43.67l-7.95 20.193c-.355.81-1.108 1.72-2.772 1.72h-9.485a.839.839 0 0 1-.683-.37.78.78 0 0 1-.07-.767l36.218-88.62a.82.82 0 0 1 .768-.513h9.229c1.308 0 2.29.654 2.773 1.849l37.157 87.27a.811.811 0 0 1-.07.782.839.839 0 0 1-.683.37h-9.628zm-15.272-31.995-5.546-13.296c-6.584-15.856-10.808-26.208-12.628-30.9l-17.349 44.196h35.508z" style="fill:#fff;stroke-width:0"/><path d="M257.17 69.496c.982 0 1.65.44 2.006 1.337l37.157 87.283h-9.627c-.981 0-1.65-.398-2.005-1.208l-8.56-20.72h-44.78l-8.148 20.72c-.356.796-1.024 1.208-2.005 1.208h-9.485l36.219-88.62h9.229m-22.454 58.289h37.968l-6.015-14.434c-7.85-18.884-12.3-29.848-13.367-32.877l-12.97 33.02-5.616 14.305m22.454-59.953h-9.23c-.668 0-1.28.413-1.52 1.024l-36.22 88.62a1.667 1.667 0 0 0 .157 1.55c.313.456.825.726 1.365.726h9.485c1.635 0 2.886-.782 3.512-2.19 0-.029.014-.043.029-.071l7.735-19.667h42.547l8.134 19.695c.64 1.45 1.891 2.219 3.527 2.219h9.627c.554 0 1.066-.285 1.38-.74.298-.47.355-1.052.141-1.564l-37.157-87.284c-.597-1.479-1.877-2.346-3.527-2.346zm-20.037 58.289 4.736-12.045 11.404-29.051c2.12 5.346 6.087 15.03 11.86 28.952l5.062 12.158h-33.062zm118.554 32.82c-1.322 0-2.374-.455-3.157-1.35l-20.733-25.924-19.14 25.994c-.74.868-1.75 1.266-3.072 1.266h-8.958a.83.83 0 0 1-.669-1.322l25.284-33.845L300.784 93.4a.833.833 0 0 1 .64-1.35h9.897c1.223 0 2.247.454 3.03 1.35l18.201 23.236 17.007-23.179c.697-.939 1.735-1.408 3.072-1.408h8.689a.83.83 0 0 1 .668 1.323L338.98 124.13l27.26 33.446c.199.242.241.583.1.882a.808.808 0 0 1-.74.469h-9.897z" style="fill:#fff;stroke-width:0"/><path d="m361.305 92.888-23.392 31.285 27.673 33.957h-9.898c-1.066 0-1.92-.355-2.545-1.066l-21.387-26.734-19.78 26.862c-.541.626-1.337.938-2.404.938h-8.959l25.668-34.356-24.857-30.872h9.897c.981 0 1.778.356 2.403 1.067l18.842 24.06 17.648-24.06c.54-.711 1.336-1.067 2.403-1.067h8.688m0-1.663h-8.688c-2.005 0-3.129.938-3.726 1.734L332.524 115.3l-17.506-22.34s-.042-.042-.056-.07a4.732 4.732 0 0 0-3.64-1.636h-9.898c-.64 0-1.209.37-1.493.938-.27.57-.2 1.252.199 1.75l24.06 29.876-24.9 33.332a1.692 1.692 0 0 0-.155 1.735c.284.555.853.91 1.478.91h8.96c1.947 0 3.07-.825 3.654-1.507a.256.256 0 0 0 .07-.1l18.516-25.14 20.05 25.055c.981 1.123 2.29 1.692 3.825 1.692h9.898c.64 0 1.222-.37 1.493-.938a1.666 1.666 0 0 0-.214-1.75l-26.862-32.948 22.625-30.246a1.66 1.66 0 0 0 .156-1.735 1.666 1.666 0 0 0-1.479-.91zm0 3.313zm39.56 65.47c-9.185 0-16.964-3.257-23.121-9.684-6.143-6.413-9.258-14.76-9.258-24.829 0-10.068 3.115-18.415 9.258-24.828 6.143-6.428 13.921-9.684 23.122-9.684h.398c9.186 0 16.965 3.256 23.122 9.684 6.143 6.413 9.257 14.76 9.257 24.828s-3.114 18.416-9.257 24.829c-6.143 6.427-13.921 9.684-23.122 9.684zm0-58.019c-6.498 0-11.546 2.005-15.016 5.93-3.498 3.968-5.275 9.883-5.275 17.562 0 7.679 1.777 13.595 5.275 17.562 3.47 3.94 8.532 5.93 15.017 5.93h.398c6.484 0 11.547-2.005 15.017-5.93 3.498-3.967 5.275-9.883 5.275-17.562 0-7.679-1.777-13.594-5.275-17.562-3.47-3.939-8.533-5.93-15.017-5.93z" style="fill:#fff;stroke-width:0"/><path d="M401.264 91.822c9.001 0 16.51 3.142 22.525 9.428 6.015 6.285 9.016 14.362 9.016 24.26 0 9.897-3.015 17.974-9.016 24.259-6.015 6.285-13.524 9.428-22.525 9.428h-.398c-9.001 0-16.51-3.143-22.525-9.428-6.015-6.285-9.03-14.362-9.03-24.26 0-9.897 3-17.974 9.03-24.26 6.015-6.285 13.524-9.427 22.525-9.427h.398m-.398 58.018h.398c6.769 0 11.988-2.076 15.642-6.214 3.655-4.138 5.475-10.182 5.475-18.117 0-7.935-1.834-13.964-5.475-18.116-3.654-4.138-8.873-6.214-15.642-6.214h-.398c-6.769 0-11.988 2.076-15.642 6.214-3.655 4.138-5.475 10.181-5.475 18.116 0 7.935 1.82 13.965 5.475 18.117 3.654 4.138 8.859 6.214 15.642 6.214m.398-59.668h-.398c-9.428 0-17.406 3.342-23.72 9.94-6.285 6.57-9.484 15.116-9.484 25.397 0 10.282 3.185 18.828 9.485 25.398 6.313 6.584 14.29 9.925 23.719 9.925h.398c9.428 0 17.406-3.341 23.72-9.925 6.285-6.57 9.484-15.116 9.484-25.398 0-10.28-3.185-18.827-9.485-25.397-6.313-6.598-14.29-9.94-23.719-9.94zm-.398 58.019c-6.328 0-11.05-1.85-14.405-5.66-3.356-3.811-5.063-9.542-5.063-17.022 0-7.48 1.707-13.21 5.063-17.021s8.063-5.66 14.405-5.66h.398c6.328 0 11.05 1.849 14.405 5.66 3.356 3.81 5.063 9.541 5.063 17.021s-1.707 13.21-5.063 17.022c-3.356 3.81-8.063 5.66-14.405 5.66zm92.773 10.764a.825.825 0 0 1-.825-.825v-40.897c0-5.446-1.138-9.343-3.37-11.575-2.318-2.318-6.542-3.498-12.514-3.498-5.134 0-10.708 1.109-16.553 3.285l-1.066.398c-.654.242-.939.64-.939 1.365v50.922c0 .456-.37.825-.824.825h-10.026a.825.825 0 0 1-.824-.825V92.902c0-.455.37-.824.824-.824h7.224c.356 0 .669.227.782.568l1.579 4.722 3.299-1.593c6.584-3.157 12.741-4.764 18.273-4.764 8.39 0 14.988 2.474 19.581 7.338 4.138 4.422 6.243 10.594 6.243 18.344v41.437c0 .456-.37.825-.825.825h-10.025z" style="fill:#fff;stroke-width:0"/><path d="M478.665 91.822c8.19 0 14.519 2.36 18.984 7.081 4.01 4.28 6.015 10.21 6.015 17.776v41.437h-10.025V117.22c0-5.702-1.21-9.755-3.612-12.158-2.489-2.489-6.869-3.74-13.097-3.74-5.262 0-10.879 1.109-16.837 3.341l-1.066.399c-.982.355-1.465 1.066-1.465 2.133v50.922h-10.025V92.888h7.224l1.877 5.617 4.138-2.005c6.498-3.114 12.47-4.678 17.917-4.678m-.028-1.65c-5.66 0-11.931 1.635-18.629 4.835l-2.46 1.194-1.28-3.825a1.653 1.653 0 0 0-1.564-1.123h-7.224c-.91 0-1.65.74-1.65 1.65v65.227c0 .91.74 1.65 1.65 1.65h10.025c.91 0 1.65-.74 1.65-1.65v-50.922c0-.412.1-.484.384-.583l1.08-.412c5.76-2.148 11.235-3.243 16.269-3.243 5.759 0 9.769 1.095 11.93 3.257 2.077 2.076 3.129 5.773 3.129 10.992v40.897c0 .91.74 1.65 1.65 1.65h10.025c.91 0 1.65-.74 1.65-1.65V116.68c0-7.978-2.177-14.334-6.457-18.913-4.764-5.048-11.56-7.608-20.178-7.608zm70.304 69.85c-9.64 0-17.562-3.328-23.534-9.897-5.958-6.542-8.973-14.818-8.973-24.616 0-9.797 3.043-18.415 9.044-24.828 6.015-6.428 13.637-9.684 22.653-9.684 9.016 0 16.396 3.071 22.183 9.143 5.788 6.058 8.717 13.61 8.717 22.426 0 4.095-1.137 6.171-3.37 6.171h-47.111c.469 6.143 2.46 11.135 5.944 14.846 3.612 3.868 8.774 5.816 15.372 5.816 4.849 0 10.409-1.322 16.524-3.939l6.811-2.943a.902.902 0 0 1 .327-.071c.256 0 .512.128.669.355l3.611 5.077a.833.833 0 0 1-.142 1.109c-3.981 3.342-8.574 6.043-13.665 8.02-5.105 1.99-10.182 3-15.074 3zm18.473-40.684c-.555-5.248-2.418-9.514-5.56-12.699-3.3-3.342-7.864-5.034-13.58-5.034-5.376 0-9.884 1.635-13.41 4.863-3.342 3.072-5.404 7.395-6.115 12.87h38.679z" style="fill:#fff;stroke-width:0"/><path d="M548.173 91.822c8.731 0 15.927 2.957 21.586 8.887 5.66 5.93 8.49 13.21 8.49 21.857 0 3.569-.853 5.347-2.546 5.347H527.71c.356 6.768 2.432 12.186 6.214 16.239 3.783 4.053 9.116 6.086 15.97 6.086 4.991 0 10.608-1.336 16.836-4.01l6.812-2.943 3.612 5.076c-3.925 3.3-8.404 5.93-13.438 7.892-5.034 1.963-9.954 2.944-14.775 2.944-9.442 0-17.093-3.214-22.923-9.627-5.845-6.413-8.76-14.434-8.76-24.06 0-9.628 2.944-17.975 8.817-24.26 5.873-6.286 13.239-9.428 22.055-9.428m-20.278 28.34h40.5c-.441-5.887-2.404-10.58-5.888-14.106-3.47-3.527-8.205-5.276-14.163-5.276-5.617 0-10.267 1.693-13.964 5.077-3.697 3.384-5.859 8.148-6.485 14.306m20.321-29.99c-9.257 0-17.078 3.34-23.264 9.939-6.143 6.57-9.272 15.116-9.272 25.383s3.086 18.472 9.187 25.17c6.128 6.74 14.262 10.167 24.145 10.167 4.992 0 10.168-1.024 15.372-3.057 5.177-2.02 9.855-4.764 13.894-8.162a1.654 1.654 0 0 0 .284-2.219l-3.612-5.076a1.664 1.664 0 0 0-1.35-.697c-.214 0-.442.043-.655.142l-6.811 2.944c-6.001 2.573-11.448 3.882-16.183 3.882-6.442 0-11.277-1.82-14.76-5.56-3.172-3.399-5.063-7.921-5.646-13.467h46.201c1.906 0 4.195-1.209 4.195-6.996 0-9.044-3.014-16.78-8.944-22.994-5.958-6.243-13.623-9.4-22.78-9.4zm-18.444 28.34c.797-4.835 2.717-8.674 5.717-11.433 3.413-3.129 7.622-4.65 12.855-4.65 5.56 0 9.812 1.564 12.997 4.792 2.816 2.858 4.58 6.655 5.22 11.291zm-286.38 63.863c2.844 2.872 4.266 6.655 4.266 11.333 0 4.679-1.45 8.362-4.352 11.178-2.9 2.815-6.712 4.237-11.461 4.237H216.23c-.214 0-.313.114-.313.313v23.79c0 .527-.27.797-.797.797h-4.066c-.527 0-.797-.27-.797-.797v-54.363c0-.527.27-.797.797-.797h21.003c4.678 0 8.447 1.436 11.29 4.309zm-4.266 19.112c1.962-1.948 2.957-4.508 2.957-7.707 0-3.2-.98-5.86-2.957-7.822-1.977-1.962-4.522-2.957-7.665-2.957h-15.173c-.213 0-.313.113-.313.312v20.762c0 .213.1.313.313.313h15.173c3.143 0 5.688-.967 7.665-2.915zm50.61 31.981-11.732-24.743c-.057-.156-.157-.242-.313-.242h-13.566c-.214 0-.313.114-.313.313v24.43c0 .527-.27.797-.796.797h-4.067c-.527 0-.797-.27-.797-.797v-54.292c0-.526.27-.797.797-.797h20.676c4.579 0 8.276 1.422 11.091 4.266 2.816 2.844 4.238 6.556 4.238 11.135 0 3.726-1.01 6.897-3.029 9.499-2.02 2.602-4.764 4.28-8.22 5.034-.212.114-.27.242-.156.398l11.974 24.587a.866.866 0 0 1 .085.398c0 .37-.213.555-.64.555h-4.237c-.484 0-.797-.185-.953-.555zm-25.938-50.055v20.193c0 .213.1.313.312.313h14.846c3.086 0 5.589-.953 7.509-2.873 1.92-1.92 2.872-4.422 2.872-7.508 0-3.086-.953-5.603-2.872-7.537-1.92-1.934-4.423-2.915-7.509-2.915h-14.846c-.213 0-.312.114-.312.313zm50.453 48.932c-2.873-1.55-5.09-3.712-6.67-6.513-1.564-2.787-2.36-6.03-2.36-9.698v-20.122c0-3.669.782-6.91 2.36-9.698 1.565-2.801 3.797-4.963 6.67-6.513 2.872-1.536 6.2-2.318 9.983-2.318 3.782 0 7.124.768 10.025 2.318 2.9 1.55 5.133 3.712 6.712 6.513 1.564 2.787 2.36 6.03 2.36 9.698v20.122c0 3.669-.782 6.91-2.36 9.698-1.565 2.801-3.811 4.963-6.712 6.513-2.901 1.55-6.243 2.318-10.025 2.318-3.783 0-7.11-.768-9.983-2.318zm19.723-6.229c2.446-2.446 3.67-5.688 3.67-9.74v-20.435c0-4.039-1.224-7.31-3.67-9.783-2.446-2.475-5.702-3.712-9.74-3.712-4.039 0-7.21 1.237-9.656 3.712-2.446 2.474-3.669 5.73-3.669 9.783v20.434c0 4.039 1.223 7.295 3.669 9.741 2.446 2.446 5.674 3.67 9.656 3.67 3.981 0 7.294-1.224 9.74-3.67zm56.44-47.182v3.427c0 .526-.27.796-.796.796h-15.642c-.213 0-.313.114-.313.313v49.742c0 .526-.27.797-.796.797h-4.067c-.526 0-.797-.27-.797-.797v-49.742c0-.213-.113-.313-.313-.313h-15.002c-.526 0-.796-.27-.796-.796v-3.427c0-.526.27-.797.796-.797h36.958c.527 0 .797.27.797.797zm14.363 53.41c-2.873-1.55-5.091-3.71-6.67-6.512-1.564-2.787-2.36-6.03-2.36-9.698v-20.122c0-3.669.782-6.91 2.36-9.698 1.565-2.801 3.797-4.963 6.67-6.513 2.872-1.536 6.2-2.318 9.982-2.318 3.783 0 7.125.768 10.026 2.318 2.9 1.55 5.133 3.712 6.712 6.513 1.564 2.787 2.36 6.03 2.36 9.698v20.122c0 3.669-.782 6.91-2.36 9.698-1.565 2.801-3.811 4.963-6.712 6.513-2.901 1.55-6.243 2.318-10.026 2.318-3.782 0-7.11-.768-9.982-2.318zm19.723-6.228c2.446-2.446 3.67-5.688 3.67-9.74v-20.435c0-4.039-1.224-7.31-3.67-9.783-2.446-2.475-5.702-3.712-9.74-3.712-4.04 0-7.21 1.237-9.656 3.712-2.446 2.474-3.669 5.73-3.669 9.783v20.434c0 4.039 1.223 7.295 3.669 9.741 2.446 2.446 5.674 3.67 9.655 3.67 3.982 0 7.295-1.224 9.741-3.67zm29.863 6.428c-2.816-1.465-5.02-3.541-6.584-6.229-1.565-2.687-2.36-5.787-2.36-9.3V195.06c0-3.455.781-6.512 2.36-9.186 1.564-2.66 3.768-4.721 6.584-6.186 2.815-1.464 6.086-2.19 9.826-2.19s6.996.711 9.826 2.162c2.816 1.436 5.02 3.455 6.584 6.072 1.564 2.616 2.36 5.617 2.36 9.016 0 .27-.085.483-.241.64a.765.765 0 0 1-.555.241l-4.067.242c-.526 0-.796-.242-.796-.725v-.242c0-3.783-1.195-6.797-3.598-9.058-2.389-2.261-5.56-3.399-9.499-3.399-3.939 0-7.11 1.138-9.499 3.427-2.389 2.29-3.598 5.29-3.598 9.016v22.354c0 3.726 1.195 6.726 3.598 9.016 2.403 2.289 5.56 3.427 9.5 3.427 3.938 0 7.11-1.124 9.498-3.399 2.39-2.261 3.598-5.276 3.598-9.058v-.157c0-.483.27-.71.796-.71l4.067.241c.526 0 .797.242.797.725 0 3.456-.783 6.513-2.361 9.144-1.564 2.63-3.768 4.664-6.584 6.1-2.816 1.437-6.1 2.162-9.826 2.162-3.726 0-6.996-.725-9.826-2.19zm48.533-.2c-2.872-1.55-5.09-3.71-6.669-6.512-1.564-2.787-2.36-6.03-2.36-9.698v-20.122c0-3.669.782-6.91 2.36-9.698 1.564-2.801 3.797-4.963 6.67-6.513 2.872-1.536 6.2-2.318 9.982-2.318 3.782 0 7.124.768 10.025 2.318 2.901 1.55 5.134 3.712 6.712 6.513 1.564 2.787 2.36 6.03 2.36 9.698v20.122c0 3.669-.782 6.91-2.36 9.698-1.564 2.801-3.811 4.963-6.712 6.513-2.9 1.55-6.243 2.318-10.025 2.318-3.783 0-7.11-.768-9.983-2.318zm19.724-6.228c2.446-2.446 3.669-5.688 3.669-9.74v-20.435c0-4.039-1.223-7.31-3.67-9.783-2.445-2.475-5.702-3.712-9.74-3.712-4.039 0-7.21 1.237-9.656 3.712-2.446 2.474-3.668 5.73-3.668 9.783v20.434c0 4.039 1.222 7.295 3.668 9.741 2.446 2.446 5.674 3.67 9.656 3.67s7.295-1.224 9.74-3.67zm22.667 7.11v-54.292c0-.526.27-.797.796-.797h4.067c.526 0 .796.27.796.797v49.813c0 .213.1.313.313.313h28.185c.526 0 .796.27.796.796v3.356c0 .526-.27.797-.796.797h-33.375c-.526 0-.796-.27-.796-.797z" style="fill:#fff;stroke-width:0"/></svg>