<?xml version="1.0" encoding="utf-8"?><svg xmlns="http://www.w3.org/2000/svg" xmlns:xlink="http://www.w3.org/1999/xlink"><symbol viewBox="0 0 600 300" id="logo-axone-dark" xmlns="http://www.w3.org/2000/svg"><path d="M75.493 178.181L12 113.835l64.176-63.323 14.931 15.116-8.49 8.319-6.441-6.627-47.368 46.685 46.685 47.368 6.115-5.944 8.319 8.49z" fill="#fff"/><path d="M122.178 138.791l-8.319-8.49 15.785-15.613-16.297-16.638 8.32-8.319 24.785 25.127z" fill="#ff9500"/><path d="M74.64 113.493l46.685 47.368 47.197-46.685-46.685-47.368zm46.514 64.005l-63.322-64.175 48.206-47.539L121.993 50l63.323 64.346-64.176 63.152zm165.552-18.543c-1.664 0-2.417-.924-2.759-1.692l-8.347-20.221h-43.67l-7.95 20.193c-.355.81-1.108 1.72-2.772 1.72h-9.485a.839.839 0 01-.683-.37.78.78 0 01-.07-.767l36.218-88.62a.82.82 0 01.768-.513h9.229c1.308 0 2.29.654 2.773 1.849l37.157 87.27a.811.811 0 01-.07.782.839.839 0 01-.683.37h-9.628zm-15.272-31.995l-5.546-13.296c-6.584-15.856-10.808-26.208-12.628-30.9l-17.349 44.196h35.508z" fill="#fff"/><path d="M257.17 69.496c.982 0 1.65.44 2.006 1.337l37.157 87.283h-9.627c-.981 0-1.65-.398-2.005-1.208l-8.56-20.72h-44.78l-8.148 20.72c-.356.796-1.024 1.208-2.005 1.208h-9.485l36.219-88.62h9.229m-22.454 58.289h37.968l-6.015-14.434c-7.85-18.884-12.3-29.848-13.367-32.877l-12.97 33.02-5.616 14.305m22.454-59.953h-9.23c-.668 0-1.28.413-1.52 1.024l-36.22 88.62a1.667 1.667 0 00.157 1.55 1.66 1.66 0 001.365.726h9.485c1.635 0 2.886-.782 3.512-2.19 0-.029.014-.043.029-.071l7.735-19.667h42.547l8.134 19.695c.64 1.45 1.891 2.219 3.527 2.219h9.627c.554 0 1.066-.285 1.38-.74.298-.47.355-1.052.141-1.564l-37.157-87.284c-.597-1.479-1.877-2.346-3.527-2.346zm-20.037 58.289l4.736-12.045 11.404-29.051c2.12 5.346 6.087 15.03 11.86 28.952l5.062 12.158h-33.062zm118.554 32.82c-1.322 0-2.374-.455-3.157-1.35l-20.733-25.924-19.14 25.994c-.74.868-1.75 1.266-3.072 1.266h-8.958a.83.83 0 01-.669-1.322l25.284-33.845L300.784 93.4a.833.833 0 01.64-1.35h9.897c1.223 0 2.247.454 3.03 1.35l18.201 23.236 17.007-23.179c.697-.939 1.735-1.408 3.072-1.408h8.689a.83.83 0 01.668 1.323L338.98 124.13l27.26 33.446a.827.827 0 01.1.882.808.808 0 01-.74.469h-9.897z" fill="#fff"/><path d="M361.305 92.888l-23.392 31.285 27.673 33.957h-9.898c-1.066 0-1.92-.355-2.545-1.066l-21.387-26.734-19.78 26.862c-.541.626-1.337.938-2.404.938h-8.959l25.668-34.356-24.857-30.872h9.897c.981 0 1.778.356 2.403 1.067l18.842 24.06 17.648-24.06c.54-.711 1.336-1.067 2.403-1.067h8.688m0-1.663h-8.688c-2.005 0-3.129.938-3.726 1.734L332.524 115.3l-17.506-22.34s-.042-.042-.056-.07a4.732 4.732 0 00-3.64-1.636h-9.898c-.64 0-1.209.37-1.493.938-.27.57-.2 1.252.199 1.75l24.06 29.876-24.9 33.332a1.692 1.692 0 00-.155 1.735c.284.555.853.91 1.478.91h8.96c1.947 0 3.07-.825 3.654-1.507a.256.256 0 00.07-.1l18.516-25.14 20.05 25.055c.981 1.123 2.29 1.692 3.825 1.692h9.898c.64 0 1.222-.37 1.493-.938a1.666 1.666 0 00-.214-1.75l-26.862-32.948 22.625-30.246a1.66 1.66 0 00.156-1.735 1.666 1.666 0 00-1.479-.91zm0 3.313zm39.56 65.47c-9.185 0-16.964-3.257-23.121-9.684-6.143-6.413-9.258-14.76-9.258-24.829 0-10.068 3.115-18.415 9.258-24.828 6.143-6.428 13.921-9.684 23.122-9.684h.398c9.186 0 16.965 3.256 23.122 9.684 6.143 6.413 9.257 14.76 9.257 24.828s-3.114 18.416-9.257 24.829c-6.143 6.427-13.921 9.684-23.122 9.684zm0-58.019c-6.498 0-11.546 2.005-15.016 5.93-3.498 3.968-5.275 9.883-5.275 17.562 0 7.679 1.777 13.595 5.275 17.562 3.47 3.94 8.532 5.93 15.017 5.93h.398c6.484 0 11.547-2.005 15.017-5.93 3.498-3.967 5.275-9.883 5.275-17.562 0-7.679-1.777-13.594-5.275-17.562-3.47-3.939-8.533-5.93-15.017-5.93z" fill="#fff"/><path d="M401.264 91.822c9.001 0 16.51 3.142 22.525 9.428 6.015 6.285 9.016 14.362 9.016 24.26 0 9.897-3.015 17.974-9.016 24.259-6.015 6.285-13.524 9.428-22.525 9.428h-.398c-9.001 0-16.51-3.143-22.525-9.428-6.015-6.285-9.03-14.362-9.03-24.26 0-9.897 3-17.974 9.03-24.26 6.015-6.285 13.524-9.427 22.525-9.427h.398m-.398 58.018h.398c6.769 0 11.988-2.076 15.642-6.214 3.655-4.138 5.475-10.182 5.475-18.117 0-7.935-1.834-13.964-5.475-18.116-3.654-4.138-8.873-6.214-15.642-6.214h-.398c-6.769 0-11.988 2.076-15.642 6.214-3.655 4.138-5.475 10.181-5.475 18.116 0 7.935 1.82 13.965 5.475 18.117 3.654 4.138 8.859 6.214 15.642 6.214m.398-59.668h-.398c-9.428 0-17.406 3.342-23.72 9.94-6.285 6.57-9.484 15.116-9.484 25.397 0 10.282 3.185 18.828 9.485 25.398 6.313 6.584 14.29 9.925 23.719 9.925h.398c9.428 0 17.406-3.341 23.72-9.925 6.285-6.57 9.484-15.116 9.484-25.398 0-10.28-3.185-18.827-9.485-25.397-6.313-6.598-14.29-9.94-23.719-9.94zm-.398 58.019c-6.328 0-11.05-1.85-14.405-5.66-3.356-3.811-5.063-9.542-5.063-17.022 0-7.48 1.707-13.21 5.063-17.021s8.063-5.66 14.405-5.66h.398c6.328 0 11.05 1.849 14.405 5.66 3.356 3.81 5.063 9.541 5.063 17.021s-1.707 13.21-5.063 17.022c-3.356 3.81-8.063 5.66-14.405 5.66zm92.773 10.764a.825.825 0 01-.825-.825v-40.897c0-5.446-1.138-9.343-3.37-11.575-2.318-2.318-6.542-3.498-12.514-3.498-5.134 0-10.708 1.109-16.553 3.285l-1.066.398c-.654.242-.939.64-.939 1.365v50.922c0 .456-.37.825-.824.825h-10.026a.825.825 0 01-.824-.825V92.902c0-.455.37-.824.824-.824h7.224c.356 0 .669.227.782.568l1.579 4.722 3.299-1.593c6.584-3.157 12.741-4.764 18.273-4.764 8.39 0 14.988 2.474 19.581 7.338 4.138 4.422 6.243 10.594 6.243 18.344v41.437c0 .456-.37.825-.825.825h-10.025z" fill="#fff"/><path d="M478.665 91.822c8.19 0 14.519 2.36 18.984 7.081 4.01 4.28 6.015 10.21 6.015 17.776v41.437h-10.025V117.22c0-5.702-1.21-9.755-3.612-12.158-2.489-2.489-6.869-3.74-13.097-3.74-5.262 0-10.879 1.109-16.837 3.341l-1.066.399c-.982.355-1.465 1.066-1.465 2.133v50.922h-10.025V92.888h7.224l1.877 5.617 4.138-2.005c6.498-3.114 12.47-4.678 17.917-4.678m-.028-1.65c-5.66 0-11.931 1.635-18.629 4.835l-2.46 1.194-1.28-3.825a1.653 1.653 0 00-1.564-1.123h-7.224c-.91 0-1.65.74-1.65 1.65v65.227c0 .91.74 1.65 1.65 1.65h10.025c.91 0 1.65-.74 1.65-1.65v-50.922c0-.412.1-.484.384-.583l1.08-.412c5.76-2.148 11.235-3.243 16.269-3.243 5.759 0 9.769 1.095 11.93 3.257 2.077 2.076 3.129 5.773 3.129 10.992v40.897c0 .91.74 1.65 1.65 1.65h10.025c.91 0 1.65-.74 1.65-1.65V116.68c0-7.978-2.177-14.334-6.457-18.913-4.764-5.048-11.56-7.608-20.178-7.608zm70.304 69.85c-9.64 0-17.562-3.328-23.534-9.897-5.958-6.542-8.973-14.818-8.973-24.616 0-9.797 3.043-18.415 9.044-24.828 6.015-6.428 13.637-9.684 22.653-9.684 9.016 0 16.396 3.071 22.183 9.143 5.788 6.058 8.717 13.61 8.717 22.426 0 4.095-1.137 6.171-3.37 6.171h-47.111c.469 6.143 2.46 11.135 5.944 14.846 3.612 3.868 8.774 5.816 15.372 5.816 4.849 0 10.409-1.322 16.524-3.939l6.811-2.943a.902.902 0 01.327-.071.82.82 0 01.669.355l3.611 5.077a.833.833 0 01-.142 1.109c-3.981 3.342-8.574 6.043-13.665 8.02-5.105 1.99-10.182 3-15.074 3zm18.473-40.684c-.555-5.248-2.418-9.514-5.56-12.699-3.3-3.342-7.864-5.034-13.58-5.034-5.376 0-9.884 1.635-13.41 4.863-3.342 3.072-5.404 7.395-6.115 12.87h38.679z" fill="#fff"/><path d="M548.173 91.822c8.731 0 15.927 2.957 21.586 8.887 5.66 5.93 8.49 13.21 8.49 21.857 0 3.569-.853 5.347-2.546 5.347H527.71c.356 6.768 2.432 12.186 6.214 16.239 3.783 4.053 9.116 6.086 15.97 6.086 4.991 0 10.608-1.336 16.836-4.01l6.812-2.943 3.612 5.076c-3.925 3.3-8.404 5.93-13.438 7.892-5.034 1.963-9.954 2.944-14.775 2.944-9.442 0-17.093-3.214-22.923-9.627-5.845-6.413-8.76-14.434-8.76-24.06 0-9.628 2.944-17.975 8.817-24.26 5.873-6.286 13.239-9.428 22.055-9.428m-20.278 28.34h40.5c-.441-5.887-2.404-10.58-5.888-14.106-3.47-3.527-8.205-5.276-14.163-5.276-5.617 0-10.267 1.693-13.964 5.077-3.697 3.384-5.859 8.148-6.485 14.306m20.321-29.99c-9.257 0-17.078 3.34-23.264 9.939-6.143 6.57-9.272 15.116-9.272 25.383s3.086 18.472 9.187 25.17c6.128 6.74 14.262 10.167 24.145 10.167 4.992 0 10.168-1.024 15.372-3.057 5.177-2.02 9.855-4.764 13.894-8.162a1.654 1.654 0 00.284-2.219l-3.612-5.076a1.664 1.664 0 00-1.35-.697c-.214 0-.442.043-.655.142l-6.811 2.944c-6.001 2.573-11.448 3.882-16.183 3.882-6.442 0-11.277-1.82-14.76-5.56-3.172-3.399-5.063-7.921-5.646-13.467h46.201c1.906 0 4.195-1.209 4.195-6.996 0-9.044-3.014-16.78-8.944-22.994-5.958-6.243-13.623-9.4-22.78-9.4zm-18.444 28.34c.797-4.835 2.717-8.674 5.717-11.433 3.413-3.129 7.622-4.65 12.855-4.65 5.56 0 9.812 1.564 12.997 4.792 2.816 2.858 4.58 6.655 5.22 11.291zm-286.38 63.863c2.844 2.872 4.266 6.655 4.266 11.333 0 4.679-1.45 8.362-4.352 11.178-2.9 2.815-6.712 4.237-11.461 4.237H216.23c-.214 0-.313.114-.313.313v23.79c0 .527-.27.797-.797.797h-4.066c-.527 0-.797-.27-.797-.797v-54.363c0-.527.27-.797.797-.797h21.003c4.678 0 8.447 1.436 11.29 4.309zm-4.266 19.112c1.962-1.948 2.957-4.508 2.957-7.707 0-3.2-.98-5.86-2.957-7.822-1.977-1.962-4.522-2.957-7.665-2.957h-15.173c-.213 0-.313.113-.313.312v20.762c0 .213.1.313.313.313h15.173c3.143 0 5.688-.967 7.665-2.915zm50.61 31.981l-11.732-24.743c-.057-.156-.157-.242-.313-.242h-13.566c-.214 0-.313.114-.313.313v24.43c0 .527-.27.797-.796.797h-4.067c-.527 0-.797-.27-.797-.797v-54.292c0-.526.27-.797.797-.797h20.676c4.579 0 8.276 1.422 11.091 4.266 2.816 2.844 4.238 6.556 4.238 11.135 0 3.726-1.01 6.897-3.029 9.499-2.02 2.602-4.764 4.28-8.22 5.034-.212.114-.27.242-.156.398l11.974 24.587a.866.866 0 01.085.398c0 .37-.213.555-.64.555h-4.237c-.484 0-.797-.185-.953-.555zm-25.938-50.055v20.193c0 .213.1.313.312.313h14.846c3.086 0 5.589-.953 7.509-2.873 1.92-1.92 2.872-4.422 2.872-7.508 0-3.086-.953-5.603-2.872-7.537-1.92-1.934-4.423-2.915-7.509-2.915h-14.846c-.213 0-.312.114-.312.313zm50.453 48.932c-2.873-1.55-5.09-3.712-6.67-6.513-1.564-2.787-2.36-6.03-2.36-9.698v-20.122c0-3.669.782-6.91 2.36-9.698 1.565-2.801 3.797-4.963 6.67-6.513 2.872-1.536 6.2-2.318 9.983-2.318 3.782 0 7.124.768 10.025 2.318 2.9 1.55 5.133 3.712 6.712 6.513 1.564 2.787 2.36 6.03 2.36 9.698v20.122c0 3.669-.782 6.91-2.36 9.698-1.565 2.801-3.811 4.963-6.712 6.513-2.901 1.55-6.243 2.318-10.025 2.318-3.783 0-7.11-.768-9.983-2.318zm19.723-6.229c2.446-2.446 3.67-5.688 3.67-9.74v-20.435c0-4.039-1.224-7.31-3.67-9.783-2.446-2.475-5.702-3.712-9.74-3.712-4.039 0-7.21 1.237-9.656 3.712-2.446 2.474-3.669 5.73-3.669 9.783v20.434c0 4.039 1.223 7.295 3.669 9.741 2.446 2.446 5.674 3.67 9.656 3.67 3.981 0 7.294-1.224 9.74-3.67zm56.44-47.182v3.427c0 .526-.27.796-.796.796h-15.642c-.213 0-.313.114-.313.313v49.742c0 .526-.27.797-.796.797h-4.067c-.526 0-.797-.27-.797-.797v-49.742c0-.213-.113-.313-.313-.313h-15.002c-.526 0-.796-.27-.796-.796v-3.427c0-.526.27-.797.796-.797h36.958c.527 0 .797.27.797.797zm14.363 53.41c-2.873-1.55-5.091-3.71-6.67-6.512-1.564-2.787-2.36-6.03-2.36-9.698v-20.122c0-3.669.782-6.91 2.36-9.698 1.565-2.801 3.797-4.963 6.67-6.513 2.872-1.536 6.2-2.318 9.982-2.318 3.783 0 7.125.768 10.026 2.318 2.9 1.55 5.133 3.712 6.712 6.513 1.564 2.787 2.36 6.03 2.36 9.698v20.122c0 3.669-.782 6.91-2.36 9.698-1.565 2.801-3.811 4.963-6.712 6.513-2.901 1.55-6.243 2.318-10.026 2.318-3.782 0-7.11-.768-9.982-2.318zm19.723-6.228c2.446-2.446 3.67-5.688 3.67-9.74v-20.435c0-4.039-1.224-7.31-3.67-9.783-2.446-2.475-5.702-3.712-9.74-3.712-4.04 0-7.21 1.237-9.656 3.712-2.446 2.474-3.669 5.73-3.669 9.783v20.434c0 4.039 1.223 7.295 3.669 9.741 2.446 2.446 5.674 3.67 9.655 3.67 3.982 0 7.295-1.224 9.741-3.67zm29.863 6.428c-2.816-1.465-5.02-3.541-6.584-6.229-1.565-2.687-2.36-5.787-2.36-9.3V195.06c0-3.455.781-6.512 2.36-9.186 1.564-2.66 3.768-4.721 6.584-6.186 2.815-1.464 6.086-2.19 9.826-2.19s6.996.711 9.826 2.162c2.816 1.436 5.02 3.455 6.584 6.072 1.564 2.616 2.36 5.617 2.36 9.016 0 .27-.085.483-.241.64a.765.765 0 01-.555.241l-4.067.242c-.526 0-.796-.242-.796-.725v-.242c0-3.783-1.195-6.797-3.598-9.058-2.389-2.261-5.56-3.399-9.499-3.399-3.939 0-7.11 1.138-9.499 3.427-2.389 2.29-3.598 5.29-3.598 9.016v22.354c0 3.726 1.195 6.726 3.598 9.016 2.403 2.289 5.56 3.427 9.5 3.427 3.938 0 7.11-1.124 9.498-3.399 2.39-2.261 3.598-5.276 3.598-9.058v-.157c0-.483.27-.71.796-.71l4.067.241c.526 0 .797.242.797.725 0 3.456-.783 6.513-2.361 9.144-1.564 2.63-3.768 4.664-6.584 6.1-2.816 1.437-6.1 2.162-9.826 2.162-3.726 0-6.996-.725-9.826-2.19zm48.533-.2c-2.872-1.55-5.09-3.71-6.669-6.512-1.564-2.787-2.36-6.03-2.36-9.698v-20.122c0-3.669.782-6.91 2.36-9.698 1.564-2.801 3.797-4.963 6.67-6.513 2.872-1.536 6.2-2.318 9.982-2.318 3.782 0 7.124.768 10.025 2.318 2.901 1.55 5.134 3.712 6.712 6.513 1.564 2.787 2.36 6.03 2.36 9.698v20.122c0 3.669-.782 6.91-2.36 9.698-1.564 2.801-3.811 4.963-6.712 6.513-2.9 1.55-6.243 2.318-10.025 2.318-3.783 0-7.11-.768-9.983-2.318zm19.724-6.228c2.446-2.446 3.669-5.688 3.669-9.74v-20.435c0-4.039-1.223-7.31-3.67-9.783-2.445-2.475-5.702-3.712-9.74-3.712-4.039 0-7.21 1.237-9.656 3.712-2.446 2.474-3.668 5.73-3.668 9.783v20.434c0 4.039 1.222 7.295 3.668 9.741 2.446 2.446 5.674 3.67 9.656 3.67s7.295-1.224 9.74-3.67zm22.667 7.11v-54.292c0-.526.27-.797.796-.797h4.067c.526 0 .796.27.796.797v49.813c0 .213.1.313.313.313h28.185c.526 0 .796.27.796.796v3.356c0 .526-.27.797-.796.797h-33.375c-.526 0-.796-.27-.796-.797z" fill="#fff"/></symbol><symbol viewBox="0 0 600 300" id="logo-axone-light" xmlns="http://www.w3.org/2000/svg"><path d="M75.493 178.181L12 113.835l64.176-63.323 14.931 15.116-8.49 8.319-6.441-6.627-47.368 46.685 46.685 47.368 6.115-5.944 8.319 8.49z" fill="#002131"/><path d="M122.178 138.791l-8.319-8.49 15.785-15.613-16.296-16.638 8.318-8.319 24.786 25.127z" fill="#ff9500"/><path d="M74.64 113.493l46.685 47.368 47.197-46.685-46.685-47.368zm46.514 64.006l-63.322-64.176 48.206-47.539L121.993 50l63.323 64.347-64.176 63.152zm165.552-18.544c-1.664 0-2.417-.924-2.758-1.692l-8.348-20.221h-43.67l-7.95 20.193c-.355.81-1.108 1.72-2.772 1.72h-9.485a.839.839 0 01-.683-.37.78.78 0 01-.07-.767l36.218-88.62a.82.82 0 01.768-.513h9.23c1.307 0 2.289.655 2.772 1.849l37.157 87.27a.811.811 0 01-.07.782.839.839 0 01-.683.37h-9.627zm-15.272-31.995l-5.546-13.296c-6.584-15.841-10.808-26.208-12.628-30.9l-17.348 44.182h35.508z" fill="#002131"/><path d="M257.17 69.496c.982 0 1.65.44 2.006 1.337l37.157 87.283h-9.627c-.98 0-1.65-.398-2.005-1.208l-8.56-20.72h-44.78l-8.148 20.72c-.356.796-1.024 1.208-2.005 1.208h-9.485l36.219-88.62h9.229m-22.454 58.289h37.968l-6.015-14.434c-7.85-18.884-12.3-29.848-13.367-32.877l-12.969 33.02-5.617 14.305m22.454-59.953h-9.23c-.667 0-1.279.413-1.52 1.024l-36.22 88.62a1.667 1.667 0 00.157 1.55 1.66 1.66 0 001.365.726h9.485c1.635 0 2.887-.782 3.512-2.19 0-.028.015-.043.029-.071l7.736-19.667h42.546l8.134 19.695c.64 1.45 1.892 2.219 3.527 2.219h9.627c.555 0 1.067-.285 1.38-.74a1.656 1.656 0 00.142-1.564l-37.158-87.284c-.597-1.479-1.877-2.346-3.526-2.346zm-20.036 58.29l4.735-12.045 11.405-29.052c2.118 5.346 6.086 15.03 11.86 28.952l5.062 12.158h-33.062zm118.554 32.82c-1.323 0-2.375-.456-3.157-1.352l-20.733-25.923-19.14 25.995c-.74.867-1.75 1.265-3.072 1.265h-8.96a.83.83 0 01-.667-1.322l25.283-33.844L300.784 93.4a.803.803 0 01-.1-.867.833.833 0 01.74-.47h9.897c1.223 0 2.247.455 3.03 1.351l18.201 23.236 17.008-23.179c.696-.938 1.734-1.408 3.071-1.408h8.689a.83.83 0 01.668 1.323l-23.008 30.758 27.26 33.446a.825.825 0 01.1.882.808.808 0 01-.74.47h-9.897z" fill="#002131"/><path d="M361.306 92.888l-23.393 31.285 27.673 33.958h-9.897c-1.067 0-1.92-.356-2.546-1.067l-21.387-26.734-19.78 26.862c-.54.626-1.337.939-2.404.939h-8.958l25.667-34.356-24.857-30.873h9.897c.982 0 1.778.356 2.404 1.067l18.841 24.06 17.648-24.06c.54-.711 1.336-1.067 2.403-1.067h8.689m0-1.663h-8.689c-2.005 0-3.128.938-3.726 1.735l-16.367 22.325-17.505-22.34s-.043-.042-.057-.07a4.732 4.732 0 00-3.64-1.636h-9.898c-.64 0-1.209.37-1.493.938-.27.57-.199 1.252.2 1.75l24.06 29.876-24.9 33.332a1.692 1.692 0 00-.156 1.735c.284.555.853.91 1.479.91h8.958c1.949 0 3.072-.824 3.655-1.507a.256.256 0 00.071-.1l18.515-25.141 20.05 25.056c.981 1.123 2.29 1.692 3.826 1.692h9.897c.64 0 1.223-.37 1.493-.938a1.666 1.666 0 00-.213-1.75l-26.862-32.948 22.624-30.246a1.66 1.66 0 00.156-1.735 1.666 1.666 0 00-1.478-.91zm0 3.313zm39.56 65.47c-9.186 0-16.965-3.257-23.122-9.684-6.143-6.413-9.257-14.76-9.257-24.829 0-10.068 3.114-18.415 9.257-24.828 6.143-6.428 13.922-9.684 23.122-9.684h.398c9.187 0 16.965 3.256 23.122 9.684 6.144 6.413 9.258 14.76 9.258 24.828s-3.114 18.416-9.258 24.829c-6.143 6.427-13.921 9.684-23.122 9.684zm0-58.019c-6.498 0-11.547 1.991-15.016 5.93-3.499 3.968-5.276 9.883-5.276 17.562 0 7.68 1.777 13.595 5.276 17.562 3.47 3.94 8.532 5.944 15.016 5.944h.398c6.485 0 11.547-2.005 15.017-5.93 3.498-3.967 5.276-9.883 5.276-17.562 0-7.679-1.778-13.594-5.276-17.562-3.47-3.939-8.532-5.93-15.017-5.93h-.398z" fill="#002131"/><path d="M401.264 91.822c9.002 0 16.51 3.142 22.525 9.428 6.015 6.285 9.016 14.362 9.016 24.26 0 9.897-3.015 17.974-9.016 24.26-6.015 6.284-13.523 9.427-22.525 9.427h-.398c-9.001 0-16.51-3.143-22.525-9.428-6.015-6.285-9.03-14.362-9.03-24.26 0-9.897 3.001-17.974 9.03-24.26 6.016-6.285 13.524-9.427 22.525-9.427h.398m-.398 58.018h.398c6.77 0 11.988-2.076 15.643-6.214 3.654-4.138 5.474-10.182 5.474-18.117 0-7.934-1.834-13.964-5.474-18.116-3.655-4.138-8.874-6.214-15.643-6.214h-.398c-6.769 0-11.987 2.076-15.642 6.214-3.655 4.138-5.475 10.182-5.475 18.116 0 7.935 1.82 13.965 5.475 18.117 3.655 4.138 8.86 6.214 15.642 6.214m.398-59.668h-.398c-9.428 0-17.405 3.342-23.72 9.94-6.284 6.57-9.484 15.116-9.484 25.397 0 10.282 3.185 18.828 9.485 25.398 6.314 6.584 14.291 9.94 23.72 9.94h.397c9.428 0 17.406-3.342 23.72-9.94 6.285-6.57 9.485-15.116 9.485-25.398 0-10.28-3.186-18.827-9.485-25.397-6.314-6.598-14.292-9.94-23.72-9.94zm-.398 58.019c-6.328 0-11.049-1.849-14.405-5.66s-5.062-9.542-5.062-17.022c0-7.48 1.706-13.21 5.062-17.021 3.356-3.811 8.063-5.66 14.405-5.66h.398c6.328 0 11.05 1.849 14.405 5.66 3.356 3.81 5.063 9.542 5.063 17.021 0 7.48-1.707 13.211-5.063 17.022-3.356 3.811-8.062 5.66-14.405 5.66zm92.773 10.764a.825.825 0 01-.825-.824v-40.898c0-5.446-1.137-9.342-3.37-11.575-2.318-2.318-6.541-3.498-12.514-3.498-5.133 0-10.708 1.109-16.552 3.285l-1.067.398c-.654.242-.938.654-.938 1.365v50.923c0 .455-.37.824-.825.824h-10.025a.825.825 0 01-.825-.824V92.902c0-.455.37-.824.825-.824h7.224c.355 0 .668.227.782.568l1.578 4.722 3.3-1.593c6.583-3.157 12.74-4.764 18.272-4.764 8.39 0 14.988 2.474 19.582 7.338 4.138 4.422 6.242 10.594 6.242 18.344v41.438c0 .455-.37.824-.825.824h-10.025z" fill="#002131"/><path d="M478.665 91.822c8.19 0 14.519 2.36 18.984 7.081 4.01 4.28 6.015 10.21 6.015 17.776v41.437H493.64V117.22c0-5.702-1.209-9.755-3.612-12.158-2.489-2.489-6.868-3.74-13.097-3.74-5.261 0-10.878 1.109-16.837 3.342l-1.066.398c-.981.355-1.465 1.066-1.465 2.133v50.922h-10.025V92.888h7.224l1.877 5.617 4.138-2.005c6.499-3.114 12.471-4.678 17.917-4.678m-.028-1.65c-5.66 0-11.93 1.635-18.628 4.835l-2.46 1.195-1.28-3.826a1.653 1.653 0 00-1.565-1.123h-7.224c-.91 0-1.65.74-1.65 1.65v65.228c0 .91.74 1.65 1.65 1.65h10.026c.91 0 1.65-.74 1.65-1.65v-50.923c0-.412.099-.484.383-.583l1.081-.412c5.76-2.148 11.234-3.243 16.268-3.243 5.76 0 9.77 1.095 11.93 3.257 2.077 2.076 3.13 5.773 3.13 10.992v40.897c0 .91.739 1.65 1.649 1.65h10.025c.91 0 1.65-.74 1.65-1.65V116.68c0-7.978-2.176-14.334-6.457-18.913-4.763-5.048-11.56-7.608-20.178-7.608zm70.305 69.85c-9.642 0-17.562-3.328-23.535-9.897-5.958-6.542-8.973-14.818-8.973-24.616 0-9.797 3.043-18.415 9.044-24.828 6.016-6.428 13.638-9.684 22.653-9.684 9.016 0 16.396 3.071 22.184 9.144 5.787 6.057 8.717 13.608 8.717 22.425 0 4.095-1.138 6.171-3.37 6.171h-47.112c.47 6.144 2.46 11.135 5.944 14.846 3.612 3.868 8.774 5.816 15.372 5.816 4.863 0 10.41-1.322 16.524-3.939l6.811-2.943a.845.845 0 01.328-.071c.256 0 .511.128.668.341l3.612 5.077a.833.833 0 01-.142 1.109c-3.982 3.342-8.575 6.043-13.666 8.02-5.12 1.99-10.182 3-15.073 3zm18.472-40.684c-.555-5.247-2.418-9.514-5.56-12.699-3.3-3.342-7.864-5.034-13.58-5.034-5.376 0-9.884 1.636-13.41 4.864-3.342 3.057-5.404 7.394-6.115 12.869h38.68z" fill="#002131"/><path d="M548.173 91.822c8.732 0 15.927 2.957 21.587 8.887 5.66 5.93 8.49 13.21 8.49 21.857 0 3.57-.854 5.347-2.546 5.347H527.71c.355 6.768 2.431 12.186 6.214 16.24 3.782 4.052 9.115 6.085 15.97 6.085 4.99 0 10.607-1.336 16.836-4.01l6.811-2.943 3.612 5.076c-3.924 3.3-8.404 5.93-13.438 7.893-5.034 1.962-9.954 2.943-14.775 2.943-9.442 0-17.092-3.214-22.923-9.627-5.844-6.413-8.76-14.434-8.76-24.06 0-9.628 2.944-17.975 8.817-24.26 5.873-6.286 13.24-9.428 22.056-9.428m-20.278 28.34h40.499c-.44-5.887-2.403-10.58-5.887-14.106-3.47-3.527-8.205-5.276-14.164-5.276-5.617 0-10.267 1.693-13.964 5.077-3.697 3.384-5.859 8.148-6.484 14.306m20.32-29.99c-9.257 0-17.078 3.34-23.264 9.94-6.143 6.569-9.271 15.115-9.271 25.382 0 10.267 3.085 18.472 9.186 25.17 6.129 6.74 14.263 10.167 24.146 10.167 4.991 0 10.167-1.023 15.372-3.057 5.176-2.02 9.855-4.764 13.893-8.162a1.654 1.654 0 00.284-2.219l-3.611-5.076a1.664 1.664 0 00-1.351-.697c-.214 0-.441.043-.655.142l-6.811 2.944c-6.001 2.574-11.447 3.882-16.183 3.882-6.441 0-11.276-1.82-14.76-5.56-3.171-3.399-5.063-7.921-5.646-13.467h46.202c1.905 0 4.195-1.209 4.195-6.996 0-9.044-3.015-16.78-8.945-22.994-5.958-6.243-13.623-9.4-22.78-9.4zm-18.443 28.34c.796-4.835 2.716-8.674 5.716-11.433 3.413-3.128 7.622-4.65 12.855-4.65 5.56 0 9.812 1.564 12.998 4.792 2.815 2.858 4.579 6.655 5.219 11.291zm-286.381 63.863c2.844 2.873 4.266 6.655 4.266 11.334 0 4.678-1.45 8.361-4.352 11.177-2.9 2.815-6.711 4.237-11.461 4.237H216.23c-.213 0-.313.114-.313.313v23.79c0 .527-.27.797-.796.797h-4.067c-.526 0-.797-.27-.797-.796v-54.364c0-.526.27-.797.797-.797h21.003c4.678 0 8.447 1.437 11.29 4.31zm-4.266 19.112c1.962-1.948 2.958-4.508 2.958-7.707 0-3.2-.982-5.86-2.958-7.821-1.977-1.963-4.522-2.958-7.665-2.958h-15.173c-.213 0-.313.113-.313.313v20.761c0 .213.1.313.313.313h15.173c3.143 0 5.688-.967 7.665-2.915zm50.61 31.981l-11.732-24.743c-.057-.156-.157-.242-.313-.242h-13.566c-.213 0-.313.114-.313.313v24.43c0 .527-.27.797-.796.797h-4.067c-.526 0-.797-.27-.797-.796v-54.293c0-.526.27-.797.797-.797h20.676c4.579 0 8.276 1.422 11.092 4.267 2.815 2.844 4.237 6.555 4.237 11.134 0 3.726-1.01 6.897-3.029 9.5-2.019 2.601-4.763 4.28-8.219 5.033-.213.114-.27.242-.156.398l11.973 24.587a.867.867 0 01.085.398c0 .37-.213.555-.64.555h-4.237c-.484 0-.796-.185-.953-.555zm-25.938-50.055v20.193c0 .213.1.313.313.313h14.846c3.085 0 5.588-.953 7.508-2.873 1.92-1.92 2.872-4.422 2.872-7.508 0-3.086-.952-5.603-2.872-7.537-1.92-1.934-4.423-2.915-7.508-2.915h-14.846c-.214 0-.313.114-.313.313zm50.453 48.932c-2.872-1.55-5.09-3.712-6.67-6.513-1.563-2.787-2.36-6.03-2.36-9.698v-20.122c0-3.669.782-6.91 2.36-9.698 1.565-2.801 3.798-4.963 6.67-6.513 2.873-1.536 6.2-2.318 9.983-2.318 3.782 0 7.124.768 10.025 2.318 2.9 1.55 5.134 3.712 6.712 6.513 1.564 2.787 2.36 6.03 2.36 9.698v20.122c0 3.669-.782 6.91-2.36 9.698-1.564 2.801-3.811 4.963-6.712 6.513-2.9 1.55-6.243 2.318-10.025 2.318-3.783 0-7.11-.768-9.983-2.318zm19.724-6.229c2.445-2.445 3.668-5.688 3.668-9.74v-20.435c0-4.038-1.223-7.309-3.668-9.783-2.446-2.475-5.703-3.712-9.741-3.712-4.039 0-7.21 1.237-9.656 3.712-2.446 2.474-3.669 5.73-3.669 9.783v20.435c0 4.038 1.223 7.295 3.67 9.74 2.445 2.446 5.673 3.67 9.655 3.67 3.981 0 7.295-1.224 9.74-3.67zm56.44-47.182v3.427c0 .526-.27.796-.797.796h-15.642c-.213 0-.313.114-.313.313v49.742c0 .527-.27.797-.796.797h-4.067c-.526 0-.796-.27-.796-.797v-49.742c0-.213-.114-.313-.313-.313h-15.003c-.526 0-.796-.27-.796-.796v-3.427c0-.526.27-.797.796-.797h36.959c.526 0 .796.27.796.797zm14.362 53.41c-2.872-1.55-5.09-3.71-6.67-6.512-1.563-2.787-2.36-6.03-2.36-9.698v-20.122c0-3.669.782-6.91 2.36-9.698 1.565-2.801 3.798-4.963 6.67-6.513 2.873-1.536 6.2-2.318 9.983-2.318 3.782 0 7.124.768 10.025 2.318 2.9 1.55 5.133 3.712 6.712 6.513 1.564 2.787 2.36 6.03 2.36 9.698v20.122c0 3.669-.782 6.91-2.36 9.698-1.564 2.801-3.811 4.963-6.712 6.513-2.901 1.55-6.243 2.318-10.025 2.318-3.783 0-7.11-.768-9.983-2.318zm19.724-6.228c2.445-2.445 3.668-5.688 3.668-9.74v-20.435c0-4.038-1.223-7.309-3.668-9.783-2.446-2.475-5.703-3.712-9.741-3.712-4.039 0-7.21 1.237-9.656 3.712-2.446 2.474-3.669 5.73-3.669 9.783v20.435c0 4.038 1.223 7.295 3.67 9.74 2.445 2.446 5.673 3.67 9.655 3.67 3.981 0 7.295-1.224 9.74-3.67zm29.862 6.428c-2.816-1.465-5.02-3.54-6.584-6.228-1.564-2.688-2.36-5.788-2.36-9.3V195.06c0-3.455.782-6.512 2.36-9.186 1.564-2.659 3.768-4.72 6.584-6.186 2.816-1.464 6.086-2.19 9.826-2.19s6.997.712 9.826 2.162c2.816 1.436 5.02 3.456 6.584 6.072 1.565 2.617 2.36 5.617 2.36 9.016 0 .27-.084.483-.24.64a.765.765 0 01-.555.241l-4.067.242c-.527 0-.797-.242-.797-.725v-.242c0-3.783-1.194-6.797-3.597-9.058-2.39-2.261-5.56-3.399-9.5-3.399-3.939 0-7.11 1.138-9.499 3.427-2.389 2.29-3.597 5.29-3.597 9.016v22.354c0 3.726 1.194 6.726 3.597 9.016 2.404 2.29 5.56 3.427 9.5 3.427 3.938 0 7.11-1.124 9.499-3.399 2.389-2.26 3.597-5.276 3.597-9.058v-.157c0-.483.27-.71.797-.71l4.067.241c.526 0 .796.242.796.725 0 3.456-.782 6.513-2.36 9.144-1.565 2.63-3.769 4.664-6.585 6.1-2.815 1.437-6.1 2.162-9.826 2.162-3.726 0-6.996-.725-9.826-2.19zm48.534-.2c-2.873-1.55-5.091-3.71-6.67-6.512-1.564-2.787-2.36-6.03-2.36-9.698v-20.122c0-3.669.782-6.91 2.36-9.698 1.565-2.801 3.797-4.963 6.67-6.513 2.872-1.536 6.2-2.318 9.982-2.318 3.783 0 7.125.768 10.026 2.318 2.9 1.55 5.133 3.712 6.711 6.513 1.565 2.787 2.361 6.03 2.361 9.698v20.122c0 3.669-.782 6.91-2.36 9.698-1.565 2.801-3.812 4.963-6.712 6.513-2.901 1.55-6.243 2.318-10.026 2.318-3.782 0-7.11-.768-9.982-2.318zm19.723-6.228c2.446-2.445 3.669-5.688 3.669-9.74v-20.435c0-4.038-1.223-7.309-3.669-9.783-2.446-2.475-5.702-3.712-9.74-3.712-4.04 0-7.21 1.237-9.656 3.712-2.446 2.474-3.67 5.73-3.67 9.783v20.435c0 4.038 1.224 7.295 3.67 9.74 2.446 2.446 5.674 3.67 9.655 3.67 3.982 0 7.295-1.224 9.741-3.67zm22.667 7.11v-54.292c0-.526.27-.797.796-.797h4.067c.527 0 .797.27.797.797v49.813c0 .214.1.313.313.313H579.4c.526 0 .796.27.796.796v3.356c0 .527-.27.797-.796.797h-33.375c-.526 0-.796-.27-.796-.797z" fill="#002131"/></symbol><symbol viewBox="0 0 800 600" id="logomark-axone-dark" xmlns="http://www.w3.org/2000/svg"><path d="M245.55 345.07l-44.65-45.25 45.13-44.53 10.5 10.63-5.97 5.85-4.53-4.66-33.31 32.83 32.83 33.31 4.3-4.18 5.85 5.97-10.15 10.03z" fill="#fff"/><path d="M278.38 317.37l-5.85-5.97 11.1-10.98-11.46-11.7 5.85-5.85 17.43 17.67-17.07 16.83z" fill="#ff9500"/><path d="M244.95 299.58l32.83 33.31 33.19-32.83-32.83-33.31-33.19 32.83zm32.71 45.01l-44.53-45.13 33.9-33.43 11.22-11.1 44.53 45.25-45.13 44.41zm116.43-13.05c-1.17 0-1.7-.65-1.94-1.19l-5.87-14.22h-30.71l-5.59 14.2c-.25.57-.78 1.21-1.95 1.21h-6.67a.59.59 0 01-.54-.8l25.47-62.32c.09-.22.3-.36.54-.36h6.49c.92 0 1.61.46 1.95 1.3l26.13 61.37c.08.18.06.38-.05.55a.59.59 0 01-.48.26h-6.77zm-10.74-22.49l-3.9-9.35c-4.63-11.15-7.6-18.43-8.88-21.73l-12.2 31.08h24.97z" fill="#fff"/><path d="M373.31 268.64c.69 0 1.16.31 1.41.94l26.13 61.38h-6.77c-.69 0-1.16-.28-1.41-.85l-6.02-14.57h-31.49l-5.73 14.57c-.25.56-.72.85-1.41.85h-6.67l25.47-62.32h6.49m-15.79 40.99h26.7l-4.23-10.15c-5.52-13.28-8.65-20.99-9.4-23.12l-9.12 23.22-3.95 10.06m15.79-42.16h-6.49c-.47 0-.9.29-1.07.72l-25.47 62.32a1.155 1.155 0 001.07 1.6h6.67c1.15 0 2.03-.55 2.47-1.54 0-.02.01-.03.02-.05l5.44-13.83h29.92l5.72 13.85c.45 1.02 1.33 1.56 2.48 1.56h6.77c.39 0 .75-.2.97-.52.21-.33.25-.74.1-1.1l-26.13-61.38c-.42-1.04-1.32-1.65-2.48-1.65zm-14.09 40.98l3.33-8.47 8.02-20.43c1.49 3.76 4.28 10.57 8.34 20.36l3.56 8.55h-23.25zm83.37 23.08c-.93 0-1.67-.32-2.22-.95l-14.58-18.23-13.46 18.28c-.52.61-1.23.89-2.16.89h-6.3a.584.584 0 01-.47-.93l17.78-23.8-17.2-21.36a.586.586 0 01.45-.95h6.96c.86 0 1.58.32 2.13.95l12.8 16.34 11.96-16.3c.49-.66 1.22-.99 2.16-.99h6.11a.584.584 0 01.47.93l-16.18 21.63 19.17 23.52c.14.17.17.41.07.62s-.3.33-.52.33h-6.96z" fill="#fff"/><path d="M446.54 285.09l-16.45 22 19.46 23.88h-6.96c-.75 0-1.35-.25-1.79-.75l-15.04-18.8-13.91 18.89c-.38.44-.94.66-1.69.66h-6.3l18.05-24.16-17.48-21.71h6.96c.69 0 1.25.25 1.69.75l13.25 16.92 12.41-16.92c.38-.5.94-.75 1.69-.75h6.11m0-1.17h-6.11c-1.41 0-2.2.66-2.62 1.22l-11.51 15.7-12.31-15.71s-.03-.03-.04-.05a3.328 3.328 0 00-2.56-1.15h-6.96c-.45 0-.85.26-1.05.66s-.14.88.14 1.23l16.92 21.01-17.51 23.44c-.26.35-.3.82-.11 1.22s.6.64 1.04.64h6.3c1.37 0 2.16-.58 2.57-1.06a.18.18 0 00.05-.07l13.02-17.68 14.1 17.62c.69.79 1.61 1.19 2.69 1.19h6.96c.45 0 .86-.26 1.05-.66.19-.4.13-.88-.15-1.23l-18.89-23.17 15.91-21.27c.26-.35.31-.82.11-1.22-.2-.39-.6-.64-1.04-.64zm0 2.32zm27.82 46.05c-6.46 0-11.93-2.29-16.26-6.81-4.32-4.51-6.51-10.38-6.51-17.46s2.19-12.95 6.51-17.46c4.32-4.52 9.79-6.81 16.26-6.81h.28c6.46 0 11.93 2.29 16.26 6.81 4.32 4.51 6.51 10.38 6.51 17.46s-2.19 12.95-6.51 17.46c-4.32 4.52-9.79 6.81-16.26 6.81h-.28zm0-40.8c-4.57 0-8.12 1.41-10.56 4.17-2.46 2.79-3.71 6.95-3.71 12.35s1.25 9.56 3.71 12.35c2.44 2.77 6 4.17 10.56 4.17h.28c4.56 0 8.12-1.41 10.56-4.17 2.46-2.79 3.71-6.95 3.71-12.35s-1.25-9.56-3.71-12.35c-2.44-2.77-6-4.17-10.56-4.17h-.28z" fill="#fff"/><path d="M474.64 284.34c6.33 0 11.61 2.21 15.84 6.63s6.34 10.1 6.34 17.06-2.12 12.64-6.34 17.06c-4.23 4.42-9.51 6.63-15.84 6.63h-.28c-6.33 0-11.61-2.21-15.84-6.63s-6.35-10.1-6.35-17.06 2.11-12.64 6.35-17.06c4.23-4.42 9.51-6.63 15.84-6.63h.28m-.28 40.8h.28c4.76 0 8.43-1.46 11-4.37 2.57-2.91 3.85-7.16 3.85-12.74s-1.29-9.82-3.85-12.74c-2.57-2.91-6.24-4.37-11-4.37h-.28c-4.76 0-8.43 1.46-11 4.37-2.57 2.91-3.85 7.16-3.85 12.74s1.28 9.82 3.85 12.74c2.57 2.91 6.23 4.37 11 4.37m.28-41.96h-.28c-6.63 0-12.24 2.35-16.68 6.99-4.42 4.62-6.67 10.63-6.67 17.86s2.24 13.24 6.67 17.86c4.44 4.63 10.05 6.98 16.68 6.98h.28c6.63 0 12.24-2.35 16.68-6.98 4.42-4.62 6.67-10.63 6.67-17.86s-2.24-13.24-6.67-17.86c-4.44-4.64-10.05-6.99-16.68-6.99zm-.28 40.79c-4.45 0-7.77-1.3-10.13-3.98-2.36-2.68-3.56-6.71-3.56-11.97s1.2-9.29 3.56-11.97c2.36-2.68 5.67-3.98 10.13-3.98h.28c4.45 0 7.77 1.3 10.13 3.98 2.36 2.68 3.56 6.71 3.56 11.97s-1.2 9.29-3.56 11.97c-2.36 2.68-5.67 3.98-10.13 3.98h-.28zm65.24 7.57a.58.58 0 01-.58-.58V302.2c0-3.83-.8-6.57-2.37-8.14-1.63-1.63-4.6-2.46-8.8-2.46-3.61 0-7.53.78-11.64 2.31l-.75.28c-.46.17-.66.45-.66.96v35.81c0 .32-.26.58-.58.58h-7.05a.58.58 0 01-.58-.58v-45.87c0-.32.26-.58.58-.58h5.08c.25 0 .47.16.55.4l1.11 3.32 2.32-1.12c4.63-2.22 8.96-3.35 12.85-3.35 5.9 0 10.54 1.74 13.77 5.16 2.91 3.11 4.39 7.45 4.39 12.9v29.14c0 .32-.26.58-.58.58h-7.05z" fill="#fff"/><path d="M529.07 284.34c5.76 0 10.21 1.66 13.35 4.98 2.82 3.01 4.23 7.18 4.23 12.5v29.14h-7.05V302.2c0-4.01-.85-6.86-2.54-8.55-1.75-1.75-4.83-2.63-9.21-2.63-3.7 0-7.65.78-11.84 2.35l-.75.28c-.69.25-1.03.75-1.03 1.5v35.81h-7.05v-45.87h5.08l1.32 3.95 2.91-1.41c4.57-2.19 8.77-3.29 12.6-3.29m-.02-1.16c-3.98 0-8.39 1.15-13.1 3.4l-1.73.84-.9-2.69c-.16-.47-.6-.79-1.1-.79h-5.08c-.64 0-1.16.52-1.16 1.16v45.87c0 .64.52 1.16 1.16 1.16h7.05c.64 0 1.16-.52 1.16-1.16v-35.81c0-.29.07-.34.27-.41l.76-.29c4.05-1.51 7.9-2.28 11.44-2.28 4.05 0 6.87.77 8.39 2.29 1.46 1.46 2.2 4.06 2.2 7.73v28.76c0 .64.52 1.16 1.16 1.16h7.05c.64 0 1.16-.52 1.16-1.16v-29.14c0-5.61-1.53-10.08-4.54-13.3-3.35-3.55-8.13-5.35-14.19-5.35zm49.44 49.12c-6.78 0-12.35-2.34-16.55-6.96-4.19-4.6-6.31-10.42-6.31-17.31s2.14-12.95 6.36-17.46c4.23-4.52 9.59-6.81 15.93-6.81s11.53 2.16 15.6 6.43c4.07 4.26 6.13 9.57 6.13 15.77 0 2.88-.8 4.34-2.37 4.34h-33.13c.33 4.32 1.73 7.83 4.18 10.44 2.54 2.72 6.17 4.09 10.81 4.09 3.41 0 7.32-.93 11.62-2.77l4.79-2.07c.08-.03.15-.05.23-.05.18 0 .36.09.47.25l2.54 3.57c.17.25.13.59-.1.78-2.8 2.35-6.03 4.25-9.61 5.64-3.59 1.4-7.16 2.11-10.6 2.11zm13-28.61c-.39-3.69-1.7-6.69-3.91-8.93-2.32-2.35-5.53-3.54-9.55-3.54-3.78 0-6.95 1.15-9.43 3.42-2.35 2.16-3.8 5.2-4.3 9.05h27.2z" fill="#fff"/><path d="M577.95 284.34c6.14 0 11.2 2.08 15.18 6.25 3.98 4.17 5.97 9.29 5.97 15.37 0 2.51-.6 3.76-1.79 3.76h-33.75c.25 4.76 1.71 8.57 4.37 11.42 2.66 2.85 6.41 4.28 11.23 4.28 3.51 0 7.46-.94 11.84-2.82l4.79-2.07 2.54 3.57c-2.76 2.32-5.91 4.17-9.45 5.55-3.54 1.38-7 2.07-10.39 2.07-6.64 0-12.02-2.26-16.12-6.77-4.11-4.51-6.16-10.15-6.16-16.92s2.07-12.64 6.2-17.06 9.31-6.63 15.51-6.63m-14.26 19.93h28.48c-.31-4.14-1.69-7.44-4.14-9.92-2.44-2.48-5.77-3.71-9.96-3.71-3.95 0-7.22 1.19-9.82 3.57-2.6 2.38-4.12 5.73-4.56 10.06m14.29-21.09c-6.51 0-12.01 2.35-16.36 6.99-4.32 4.62-6.52 10.63-6.52 17.85s2.17 12.99 6.46 17.7c4.31 4.74 10.03 7.15 16.98 7.15 3.51 0 7.15-.72 10.81-2.15 3.64-1.42 6.93-3.35 9.77-5.74.46-.39.55-1.07.2-1.56l-2.54-3.57a1.17 1.17 0 00-.95-.49c-.15 0-.31.03-.46.1l-4.79 2.07c-4.22 1.81-8.05 2.73-11.38 2.73-4.53 0-7.93-1.28-10.38-3.91-2.23-2.39-3.56-5.57-3.97-9.47h32.49c1.34 0 2.95-.85 2.95-4.92 0-6.36-2.12-11.8-6.29-16.17-4.19-4.39-9.58-6.61-16.02-6.61zm-12.97 19.93c.56-3.4 1.91-6.1 4.02-8.04 2.4-2.2 5.36-3.27 9.04-3.27 3.91 0 6.9 1.1 9.14 3.37 1.98 2.01 3.22 4.68 3.67 7.94h-25.87z" fill="#fff"/></symbol><symbol viewBox="0 0 800 600" id="logomark-axone-light" xmlns="http://www.w3.org/2000/svg"><path d="M245.55 345.07l-44.65-45.25 45.13-44.53 10.5 10.63-5.97 5.85-4.53-4.66-33.31 32.83 32.83 33.31 4.3-4.18 5.85 5.97-10.15 10.03z" fill="#002131"/><path d="M278.38 317.37l-5.85-5.97 11.1-10.98-11.46-11.7 5.85-5.85 17.43 17.67-17.07 16.83z" fill="#ff9500"/><path d="M244.95 299.58l32.83 33.31 33.19-32.83-32.83-33.31-33.19 32.83zm32.71 45.01l-44.53-45.13 33.9-33.43 11.22-11.1 44.53 45.25-45.13 44.41zm116.43-13.05c-1.17 0-1.7-.65-1.94-1.19l-5.87-14.23h-30.71l-5.59 14.2c-.25.57-.78 1.21-1.95 1.21h-6.67a.59.59 0 01-.54-.8l25.47-62.32c.09-.22.3-.36.54-.36h6.49c.92 0 1.61.46 1.95 1.3l26.13 61.37c.08.18.06.38-.05.55a.59.59 0 01-.48.26h-6.77zm-10.74-22.49l-3.9-9.35c-4.63-11.14-7.6-18.43-8.88-21.73l-12.2 31.08h24.97z" fill="#002131"/><path d="M373.31 268.64c.69 0 1.16.31 1.41.94l26.13 61.38h-6.77c-.69 0-1.16-.28-1.41-.85l-6.02-14.57h-31.49l-5.73 14.57c-.25.56-.72.85-1.41.85h-6.67l25.47-62.32h6.49m-15.79 40.99h26.7l-4.23-10.15c-5.52-13.28-8.65-20.99-9.4-23.12l-9.12 23.22-3.95 10.06m15.79-42.16h-6.49c-.47 0-.9.29-1.07.72l-25.47 62.32a1.155 1.155 0 001.07 1.6h6.67c1.15 0 2.03-.55 2.47-1.54 0-.02.01-.03.02-.05l5.44-13.83h29.92l5.72 13.85c.45 1.02 1.33 1.56 2.48 1.56h6.77c.39 0 .75-.2.97-.52.21-.33.25-.74.1-1.1l-26.13-61.38c-.42-1.04-1.32-1.65-2.48-1.65zm-14.09 40.98l3.33-8.47 8.02-20.43c1.49 3.76 4.28 10.57 8.34 20.36l3.56 8.55h-23.25zm83.37 23.08c-.93 0-1.67-.32-2.22-.95l-14.58-18.23-13.46 18.28c-.52.61-1.23.89-2.16.89h-6.3a.584.584 0 01-.47-.93l17.78-23.8-17.2-21.36c-.14-.17-.17-.41-.07-.61s.3-.33.52-.33h6.96c.86 0 1.58.32 2.13.95l12.8 16.34 11.96-16.3c.49-.66 1.22-.99 2.16-.99h6.11a.584.584 0 01.47.93l-16.18 21.63 19.17 23.52c.14.17.17.41.07.62s-.3.33-.52.33h-6.96z" fill="#002131"/><path d="M446.54 285.09l-16.45 22 19.46 23.88h-6.96c-.75 0-1.35-.25-1.79-.75l-15.04-18.8-13.91 18.89c-.38.44-.94.66-1.69.66h-6.3l18.05-24.16-17.48-21.71h6.96c.69 0 1.25.25 1.69.75l13.25 16.92 12.41-16.92c.38-.5.94-.75 1.69-.75h6.11m0-1.17h-6.11c-1.41 0-2.2.66-2.62 1.22l-11.51 15.7-12.31-15.71s-.03-.03-.04-.05a3.328 3.328 0 00-2.56-1.15h-6.96c-.45 0-.85.26-1.05.66-.19.4-.14.88.14 1.23l16.92 21.01-17.51 23.44c-.26.35-.3.82-.11 1.22.2.39.6.64 1.04.64h6.3c1.37 0 2.16-.58 2.57-1.06a.18.18 0 00.05-.07l13.02-17.68 14.1 17.62c.69.79 1.61 1.19 2.69 1.19h6.96c.45 0 .86-.26 1.05-.66.19-.4.13-.88-.15-1.23l-18.89-23.17 15.91-21.27c.26-.35.31-.82.11-1.22-.2-.39-.6-.64-1.04-.64zm0 2.32zm27.82 46.05c-6.46 0-11.93-2.29-16.26-6.81-4.32-4.51-6.51-10.38-6.51-17.46s2.19-12.95 6.51-17.46c4.32-4.52 9.79-6.81 16.26-6.81h.28c6.46 0 11.93 2.29 16.26 6.81 4.32 4.51 6.51 10.38 6.51 17.46s-2.19 12.95-6.51 17.46c-4.32 4.52-9.79 6.81-16.26 6.81h-.28zm0-40.8c-4.57 0-8.12 1.4-10.56 4.17-2.46 2.79-3.71 6.95-3.71 12.35s1.25 9.56 3.71 12.35c2.44 2.77 6 4.17 10.56 4.17h.28c4.56 0 8.12-1.41 10.56-4.17 2.46-2.79 3.71-6.95 3.71-12.35s-1.25-9.56-3.71-12.35c-2.44-2.77-6-4.17-10.56-4.17h-.28z" fill="#002131"/><path d="M474.64 284.34c6.33 0 11.61 2.21 15.84 6.63s6.34 10.1 6.34 17.06-2.12 12.64-6.34 17.06c-4.23 4.42-9.51 6.63-15.84 6.63h-.28c-6.33 0-11.61-2.21-15.84-6.63s-6.35-10.1-6.35-17.06 2.11-12.64 6.35-17.06c4.23-4.42 9.51-6.63 15.84-6.63h.28m-.28 40.8h.28c4.76 0 8.43-1.46 11-4.37 2.57-2.91 3.85-7.16 3.85-12.74s-1.29-9.82-3.85-12.74c-2.57-2.91-6.24-4.37-11-4.37h-.28c-4.76 0-8.43 1.46-11 4.37-2.57 2.91-3.85 7.16-3.85 12.74s1.28 9.82 3.85 12.74c2.57 2.91 6.23 4.37 11 4.37m.28-41.96h-.28c-6.63 0-12.24 2.35-16.68 6.99-4.42 4.62-6.67 10.63-6.67 17.86s2.24 13.24 6.67 17.86c4.44 4.63 10.05 6.99 16.68 6.99h.28c6.63 0 12.24-2.35 16.68-6.99 4.42-4.62 6.67-10.63 6.67-17.86s-2.24-13.24-6.67-17.86c-4.44-4.64-10.05-6.99-16.68-6.99zm-.28 40.79c-4.45 0-7.77-1.3-10.13-3.98-2.36-2.68-3.56-6.71-3.56-11.97s1.2-9.29 3.56-11.97c2.36-2.68 5.67-3.98 10.13-3.98h.28c4.45 0 7.77 1.3 10.13 3.98 2.36 2.68 3.56 6.71 3.56 11.97s-1.2 9.29-3.56 11.97c-2.36 2.68-5.67 3.98-10.13 3.98h-.28zm65.24 7.57a.58.58 0 01-.58-.58V302.2c0-3.83-.8-6.57-2.37-8.14-1.63-1.63-4.6-2.46-8.8-2.46-3.61 0-7.52.78-11.64 2.31l-.75.28c-.46.17-.66.46-.66.96v35.81c0 .32-.26.58-.58.58h-7.05a.58.58 0 01-.58-.58v-45.87c0-.32.26-.58.58-.58h5.08c.25 0 .47.16.55.4l1.11 3.32 2.32-1.12c4.63-2.22 8.96-3.35 12.85-3.35 5.9 0 10.54 1.74 13.77 5.16 2.91 3.11 4.39 7.45 4.39 12.9v29.14c0 .32-.26.58-.58.58h-7.05z" fill="#002131"/><path d="M529.07 284.34c5.76 0 10.21 1.66 13.35 4.98 2.82 3.01 4.23 7.18 4.23 12.5v29.14h-7.05V302.2c0-4.01-.85-6.86-2.54-8.55-1.75-1.75-4.83-2.63-9.21-2.63-3.7 0-7.65.78-11.84 2.35l-.75.28c-.69.25-1.03.75-1.03 1.5v35.81h-7.05v-45.87h5.08l1.32 3.95 2.91-1.41c4.57-2.19 8.77-3.29 12.6-3.29m-.02-1.16c-3.98 0-8.39 1.15-13.1 3.4l-1.73.84-.9-2.69c-.16-.47-.6-.79-1.1-.79h-5.08c-.64 0-1.16.52-1.16 1.16v45.87c0 .64.52 1.16 1.16 1.16h7.05c.64 0 1.16-.52 1.16-1.16v-35.81c0-.29.07-.34.27-.41l.76-.29c4.05-1.51 7.9-2.28 11.44-2.28 4.05 0 6.87.77 8.39 2.29 1.46 1.46 2.2 4.06 2.2 7.73v28.76c0 .64.52 1.16 1.16 1.16h7.05c.64 0 1.16-.52 1.16-1.16v-29.14c0-5.61-1.53-10.08-4.54-13.3-3.35-3.55-8.13-5.35-14.19-5.35zm49.44 49.12c-6.78 0-12.35-2.34-16.55-6.96-4.19-4.6-6.31-10.42-6.31-17.31s2.14-12.95 6.36-17.46c4.23-4.52 9.59-6.81 15.93-6.81s11.53 2.16 15.6 6.43c4.07 4.26 6.13 9.57 6.13 15.77 0 2.88-.8 4.34-2.37 4.34h-33.13c.33 4.32 1.73 7.83 4.18 10.44 2.54 2.72 6.17 4.09 10.81 4.09 3.42 0 7.32-.93 11.62-2.77l4.79-2.07c.07-.03.15-.05.23-.05.18 0 .36.09.47.25l2.54 3.57c.17.25.13.59-.1.78-2.8 2.35-6.03 4.25-9.61 5.64-3.6 1.4-7.16 2.11-10.6 2.11zm13-28.61c-.39-3.69-1.7-6.69-3.91-8.93-2.32-2.35-5.53-3.54-9.55-3.54-3.78 0-6.95 1.15-9.43 3.42-2.35 2.15-3.8 5.2-4.3 9.05h27.2z" fill="#002131"/><path d="M577.95 284.34c6.14 0 11.2 2.08 15.18 6.25 3.98 4.17 5.97 9.29 5.97 15.37 0 2.51-.6 3.76-1.79 3.76h-33.75c.25 4.76 1.71 8.57 4.37 11.42 2.66 2.85 6.41 4.28 11.23 4.28 3.51 0 7.46-.94 11.84-2.82l4.79-2.07 2.54 3.57c-2.76 2.32-5.91 4.17-9.45 5.55-3.54 1.38-7 2.07-10.39 2.07-6.64 0-12.02-2.26-16.12-6.77-4.11-4.51-6.16-10.15-6.16-16.92s2.07-12.64 6.2-17.06 9.31-6.63 15.51-6.63m-14.26 19.93h28.48c-.31-4.14-1.69-7.44-4.14-9.92-2.44-2.48-5.77-3.71-9.96-3.71-3.95 0-7.22 1.19-9.82 3.57-2.6 2.38-4.12 5.73-4.56 10.06m14.29-21.09c-6.51 0-12.01 2.35-16.36 6.99-4.32 4.62-6.52 10.63-6.52 17.85s2.17 12.99 6.46 17.7c4.31 4.74 10.03 7.15 16.98 7.15 3.51 0 7.15-.72 10.81-2.15 3.64-1.42 6.93-3.35 9.77-5.74.46-.39.55-1.07.2-1.56l-2.54-3.57a1.17 1.17 0 00-.95-.49c-.15 0-.31.03-.46.1l-4.79 2.07c-4.22 1.81-8.05 2.73-11.38 2.73-4.53 0-7.93-1.28-10.38-3.91-2.23-2.39-3.56-5.57-3.97-9.47h32.49c1.34 0 2.95-.85 2.95-4.92 0-6.36-2.12-11.8-6.29-16.17-4.19-4.39-9.58-6.61-16.02-6.61zm-12.97 19.93c.56-3.4 1.91-6.1 4.02-8.04 2.4-2.2 5.36-3.27 9.04-3.27 3.91 0 6.9 1.1 9.14 3.37 1.98 2.01 3.22 4.68 3.67 7.94h-25.87z" fill="#002131"/></symbol><symbol viewBox="0 0 121.88 90.14" id="logotype-axone-dark" xmlns="http://www.w3.org/2000/svg"><path d="M44.65 90.14L0 44.89 45.13.36l10.5 10.63-5.97 5.85-4.53-4.66-33.31 32.83 32.83 33.31 4.3-4.18 5.85 5.97-10.15 10.03z" fill="#fff"/><path d="M77.48 62.44l-5.85-5.97 11.1-10.98-11.46-11.7 5.85-5.85 17.43 17.67-17.07 16.83z" fill="#ff9500"/><path d="M44.05 44.65l32.83 33.31 33.19-32.83-32.83-33.31-33.19 32.83zm32.71 45.01L32.23 44.53l33.9-33.43L77.35 0l44.53 45.25-45.13 44.41h.01z" fill="#fff"/></symbol><symbol viewBox="0 0 121.88 90.14" id="logotype-axone-light" xmlns="http://www.w3.org/2000/svg"><path d="M44.65 90.14L0 44.89 45.13.36l10.5 10.63-5.97 5.85-4.53-4.66-33.31 32.83 32.83 33.31 4.3-4.18 5.85 5.97-10.15 10.03z" fill="#002131"/><path d="M77.48 62.44l-5.85-5.97 11.1-10.98-11.46-11.7 5.85-5.85 17.43 17.67-17.07 16.83z" fill="#ff9500"/><path d="M44.05 44.65l32.83 33.31 33.19-32.83-32.83-33.31-33.19 32.83zm32.71 45.01L32.23 44.53l33.9-33.43L77.35 0l44.53 45.25-45.13 44.41h.01z" fill="#002131"/></symbol></svg>